<svg width="48" height="48" viewBox="0 0 48 48" fill="none" xmlns="http://www.w3.org/2000/svg">
<g clip-path="url(#clip0_31_485)">
<path d="M42.9427 28.5548C42.3735 27.9855 41.676 27.5911 40.9155 27.3977C41.2652 25.9492 40.876 24.3571 39.7474 23.2286C39.1671 22.6482 38.464 22.2641 37.721 22.0747C38.0511 20.7099 37.7457 19.0966 36.5514 17.9024C36.1507 17.5017 35.6913 17.1955 35.2009 16.9811L39.7481 12.4345C41.4726 10.7079 41.4757 7.91306 39.7474 6.18498C38.0213 4.45878 35.2262 4.45578 33.4974 6.18498L19.3131 20.3693L18.4835 16.7746C18.0073 14.7095 16.4456 13.0636 14.4081 12.4794C12.3711 11.895 10.1747 12.4632 8.67623 13.9624C8.67604 13.9626 8.67585 13.9627 8.67557 13.9629C8.41181 14.227 8.26338 14.5855 8.26376 14.9588L8.28129 32.4532L4.17441 36.5602C3.62513 37.1094 3.62513 37.9999 4.17441 38.5492L13.2132 47.5881C13.4769 47.8519 13.8347 48.0001 14.2077 48.0001H27.2937C28.876 48.0001 30.3639 47.3835 31.4834 46.264L42.9426 34.8048C44.6476 33.1015 44.6901 30.2997 42.9427 28.5548ZM35.4864 25.2175C36.1146 24.5893 37.131 24.5901 37.7584 25.2175C38.3848 25.8439 38.3848 26.8631 37.7584 27.4896L34.5623 30.6855C33.9331 31.3149 32.9165 31.3118 32.2906 30.6858C31.6642 30.059 31.6641 29.0396 32.2902 28.4134L35.4864 25.2175ZM30.3013 26.4245C29.675 27.0509 28.6557 27.0505 28.0293 26.4245C27.4029 25.7981 27.4029 24.7789 28.0293 24.1525L32.2903 19.8914C32.9172 19.2646 33.9365 19.2654 34.5623 19.8914C35.1907 20.5196 35.1896 21.5362 34.5623 22.1634C34.5623 22.1635 34.562 22.1638 34.5621 22.1637C34.5623 22.1634 30.3013 26.4245 30.3013 26.4245ZM29.4946 44.2748C28.9148 44.8546 28.1128 45.1871 27.2938 45.1871H14.7903L7.15799 37.5546L10.6829 34.0297C10.947 33.7655 11.0952 33.4072 11.0949 33.0337L11.0774 15.6064C11.8144 15.0939 12.7524 14.9307 13.6326 15.1833C14.6876 15.4858 15.4961 16.3377 15.7426 17.4067L17.1431 23.4744C17.2033 23.7353 17.3357 23.9678 17.5183 24.1508C17.5185 24.1513 18.584 25.2175 18.584 25.2175C20.9725 27.6059 20.9725 31.4923 18.584 33.8809C18.0348 34.4301 18.0348 35.3206 18.584 35.8699C19.1333 36.4192 20.024 36.4191 20.5731 35.8699C24.0583 32.3847 24.0583 26.7138 20.5731 23.2286L20.5025 23.1579L35.4865 8.17392C36.1292 7.53097 37.1468 7.56229 37.7584 8.17401C38.3855 8.80101 38.3859 9.8177 37.7584 10.446L26.0403 22.1634C24.3171 23.8865 24.3171 26.6903 26.0406 28.4138C26.8636 29.2363 27.9327 29.665 29.013 29.702C29.05 30.7822 29.4788 31.8515 30.3013 32.6746C31.1237 33.4971 32.1923 33.926 33.2721 33.9633C33.3101 35.0864 33.7641 36.1366 34.5617 36.9344C34.9568 37.33 35.4142 37.6402 35.9113 37.8583L29.4946 44.2748ZM40.9543 32.8151C40.954 32.8153 40.9538 32.8156 40.9535 32.8158L38.8228 34.9466C38.2036 35.5666 37.1852 35.5806 36.5514 34.946C35.9193 34.314 35.929 33.297 36.5518 32.6742L38.6823 30.5438C39.3145 29.9116 40.3312 29.9215 40.9542 30.5444C41.5901 31.1793 41.5721 32.1981 40.9543 32.8151Z" fill="#1A73E5"/>
<path d="M18.7273 8.83139C19.504 8.83139 20.1337 8.20167 20.1337 7.42493V1.39906C20.0594 -0.467042 17.3944 -0.465636 17.3208 1.39906V7.42502C17.3208 8.20177 17.9505 8.83139 18.7273 8.83139Z" fill="#1A73E5"/>
<path d="M11.7067 8.41949C12.256 8.96885 13.1466 8.96866 13.6957 8.41949C14.245 7.87021 14.245 6.97973 13.6957 6.43046L12.1893 4.92404C11.6401 4.37477 10.7496 4.37477 10.2003 4.92404C9.65101 5.47331 9.65101 6.36379 10.2003 6.91307L11.7067 8.41949Z" fill="#1A73E5"/>
<path d="M25.7477 8.41949L27.2541 6.91307C27.8034 6.36379 27.8034 5.47331 27.2541 4.92404C26.7049 4.37477 25.8143 4.37477 25.2651 4.92404L23.7586 6.43046C23.2094 6.97973 23.2094 7.87021 23.7586 8.41949C24.3079 8.96885 25.1985 8.96866 25.7477 8.41949Z" fill="#1A73E5"/>
</g>
<defs>
<clipPath id="clip0_31_485">
<rect width="48" height="48" fill="white"/>
</clipPath>
</defs>
</svg>
