<svg width="48" height="48" viewBox="0 0 48 48" fill="none" xmlns="http://www.w3.org/2000/svg">
<g clip-path="url(#clip0_31_494)">
<path d="M47.7265 23.3383V23.3382L43.0298 18.626L47.8747 10.2181C47.9567 10.0757 47.9999 9.91434 47.9999 9.75C47.9999 4.37381 43.6262 0 38.25 0H9.75C4.37381 0 0 4.37381 0 9.75C0 9.91434 0.043125 10.0757 0.125156 10.218L4.96997 18.6262L0.273562 23.3381V23.3382C0.104531 23.5078 0 23.7417 0 24V47.0625C0 47.5802 0.419719 48 0.9375 48H47.0625C47.5802 48 48 47.5802 48 47.0625V24C48 23.7417 47.8955 23.5078 47.7265 23.3383ZM1.875 33.0999C2.71678 32.9417 3.48506 32.5739 4.125 32.0538V39.0087C3.48506 38.4886 2.71678 38.1208 1.875 37.9626V33.0999ZM37.9625 24.9375C38.1207 25.7793 38.4885 26.5476 39.0086 27.1875H8.99137C9.51159 26.5476 9.87928 25.7793 10.0375 24.9375H37.9625ZM42 42H6V29.0625H19.3125V31.875C19.3125 34.4597 21.4153 36.5625 24 36.5625C26.5847 36.5625 28.6875 34.4597 28.6875 31.875V29.0625H42V42ZM24 31.0938C24.5178 31.0938 24.9375 30.674 24.9375 30.1563V29.0625H26.8125V31.875C26.8125 33.4258 25.5508 34.6875 24 34.6875C22.4492 34.6875 21.1875 33.4258 21.1875 31.875V29.0625H23.0625V30.1563C23.0625 30.674 23.4823 31.0938 24 31.0938ZM39.0087 43.875C38.4886 44.5149 38.1208 45.2832 37.9626 46.125H10.0375C9.87928 45.2832 9.5115 44.5149 8.99137 43.875H39.0087ZM43.875 32.0538C44.5149 32.5739 45.2832 32.9417 46.125 33.0999V37.9625C45.2832 38.1207 44.5149 38.4885 43.875 39.0086V32.0538ZM46.125 31.1716C44.8235 30.7703 43.875 29.5565 43.875 28.125C43.875 27.6073 43.4552 27.1875 42.9375 27.1875C41.506 27.1875 40.2922 26.2389 39.8909 24.9375H46.125V31.1716ZM33.8048 12.9331C34.2601 13.6382 34.8618 14.2399 35.567 14.6953C34.8619 15.1507 34.2602 15.7523 33.8048 16.4575C33.3494 15.7524 32.7477 15.1508 32.0425 14.6953C32.7477 14.24 33.3494 13.6383 33.8048 12.9331ZM38.7501 15.6328C39.2677 15.6328 39.6876 15.213 39.6876 14.6953C39.6876 14.1776 39.2677 13.7578 38.7501 13.7578C36.8631 13.7578 35.2774 12.4465 34.8541 10.6875H45.4402L41.3173 17.8421H35.17C35.8304 16.5332 37.1867 15.6328 38.7501 15.6328ZM46.0677 8.8125H28.6875V1.875H38.25C42.275 1.875 45.6027 4.91053 46.0677 8.8125ZM26.8125 1.875V8.8125H24.9375V7.5C24.9375 6.98231 24.5178 6.5625 24 6.5625C23.4822 6.5625 23.0625 6.98231 23.0625 7.5V8.8125H21.1875V1.875H26.8125ZM9.75 1.875H19.3125V8.69166C17.5731 8.25441 16.2813 6.67781 16.2813 4.80469C16.2813 4.287 15.8616 3.86719 15.3438 3.86719C14.826 3.86719 14.4063 4.287 14.4063 4.80469C14.4063 7.01456 12.6083 8.8125 10.3985 8.8125H1.93219C2.39719 4.91053 5.72494 1.875 9.75 1.875ZM17.106 9.75C16.4009 10.2053 15.7992 10.807 15.3438 11.5122C14.8884 10.8071 14.2867 10.2054 13.5816 9.75C14.2867 9.29466 14.8883 8.69297 15.3438 7.98778C15.7991 8.69297 16.4008 9.29466 17.106 9.75ZM6.52997 19.7171H16.7555C17.2733 19.7171 17.693 19.2973 17.693 18.7796C17.693 18.2619 17.2733 17.8421 16.7555 17.8421H6.68222L2.55966 10.6875H10.3985C12.6083 10.6875 14.4063 12.4854 14.4063 14.6953C14.4063 15.213 14.826 15.6328 15.3438 15.6328C15.8616 15.6328 16.2813 15.213 16.2813 14.6953C16.2813 12.4854 18.0792 10.6875 20.2891 10.6875H32.7554C32.332 12.4465 30.7464 13.7578 28.8594 13.7578C28.3418 13.7578 27.9219 14.1776 27.9219 14.6953C27.9219 15.213 28.3418 15.6328 28.8594 15.6328C30.4228 15.6328 31.7791 16.5332 32.4394 17.8421H25.1929C24.6752 17.8421 24.2554 18.2619 24.2554 18.7796C24.2554 19.2973 24.6752 19.7171 25.1929 19.7171H32.8711C32.9102 20.199 33.3128 20.5781 33.8048 20.5781C34.2967 20.5781 34.6993 20.199 34.7384 19.7171H41.47L44.8043 23.0625H3.19566L6.52997 19.7171ZM8.10919 24.9375C7.70784 26.2389 6.49397 27.1875 5.0625 27.1875C4.54472 27.1875 4.125 27.6073 4.125 28.125C4.125 29.5565 3.17644 30.7703 1.875 31.1716V24.9375H8.10919ZM1.875 39.8909C3.17644 40.2922 4.125 41.506 4.125 42.9375C4.125 43.4552 4.54472 43.875 5.0625 43.875C6.49397 43.875 7.70784 44.8236 8.10909 46.125H1.875V39.8909ZM39.8909 46.125C40.2922 44.8236 41.506 43.875 42.9375 43.875C43.4552 43.875 43.875 43.4552 43.875 42.9375C43.875 41.506 44.8235 40.2922 46.125 39.8909V46.125H39.8909Z" fill="#1A73E5"/>
<path d="M20.9746 19.7174C21.2202 19.7174 21.4621 19.6172 21.6374 19.4427C21.8118 19.2683 21.9112 19.0266 21.9112 18.7799C21.9112 18.5333 21.8118 18.2915 21.6374 18.1172C21.4621 17.9419 21.2212 17.8424 20.9746 17.8424C20.7271 17.8424 20.4852 17.9419 20.3109 18.1172C20.1365 18.2915 20.0371 18.5333 20.0371 18.7799C20.0371 19.0266 20.1365 19.2683 20.3109 19.4427C20.4862 19.6172 20.7271 19.7174 20.9746 19.7174Z" fill="#1A73E5"/>
</g>
<defs>
<clipPath id="clip0_31_494">
<rect width="48" height="48" fill="white"/>
</clipPath>
</defs>
</svg>
