<svg width="48" height="48" viewBox="0 0 48 48" fill="none" xmlns="http://www.w3.org/2000/svg">
<path d="M16.125 25.875C17.1606 25.875 18 25.0356 18 24C18 22.9644 17.1606 22.125 16.125 22.125H9.375C8.33944 22.125 7.5 22.9644 7.5 24C7.5 25.0356 8.33944 25.875 9.375 25.875H16.125Z" fill="#1A73E5"/>
<path d="M31.125 7.125H1.875C0.839438 7.125 0 7.96444 0 9C0 10.0356 0.839438 10.875 1.875 10.875H20.5928C19.2797 11.9437 18.1245 13.2087 17.1745 14.625H5.625C4.58944 14.625 3.75 15.4644 3.75 16.5C3.75 17.5356 4.58944 18.375 5.625 18.375H18.2124C18.8802 18.375 19.4976 18.0199 19.8333 17.4427C22.2249 13.3302 26.4462 10.875 31.125 10.875C38.3621 10.875 44.25 16.7629 44.25 24C44.25 31.2371 38.3621 37.125 31.125 37.125C26.4459 37.125 22.2247 34.6699 19.8333 30.5574C19.4976 29.9802 18.8802 29.625 18.2124 29.625H5.625C4.58944 29.625 3.75 30.4644 3.75 31.5C3.75 32.5356 4.58944 33.375 5.625 33.375H17.1745C18.1244 34.7913 19.2795 36.0562 20.5925 37.125H1.875C0.839438 37.125 0 37.9644 0 39C0 40.0356 0.839438 40.875 1.875 40.875H31.125C40.4299 40.875 48 33.3049 48 24C48 14.6951 40.4299 7.125 31.125 7.125Z" fill="#1A73E5"/>
<path d="M28.701 29.0758L32.451 25.3258C32.8025 24.9742 33 24.4972 33 24V16.5C33 15.4644 32.1606 14.625 31.125 14.625C30.0895 14.625 29.25 15.4644 29.25 16.5V23.2234L26.0491 26.4242C25.317 27.1565 25.317 28.3436 26.0491 29.0758C26.7814 29.8081 27.9687 29.8081 28.701 29.0758Z" fill="#1A73E5"/>
</svg>
