<svg width="87" height="24" viewBox="0 0 87 24" fill="none" xmlns="http://www.w3.org/2000/svg">
<path d="M30.026 18.168C29.2233 18.168 28.5093 18 27.884 17.664C27.268 17.328 26.7827 16.866 26.428 16.278C26.0733 15.69 25.896 15.0227 25.896 14.276V7.57H27.8V14.178C27.8 14.6073 27.8933 14.9947 28.08 15.34C28.276 15.6853 28.542 15.956 28.878 16.152C29.214 16.3387 29.5967 16.432 30.026 16.432C30.4647 16.432 30.8473 16.3387 31.174 16.152C31.51 15.956 31.7713 15.6853 31.958 15.34C32.154 14.9947 32.252 14.6073 32.252 14.178V7.57H34.156V14.276C34.156 15.0227 33.9787 15.69 33.624 16.278C33.2693 16.866 32.7793 17.328 32.154 17.664C31.538 18 30.8287 18.168 30.026 18.168ZM37.3028 18V10.384H39.0248V11.882L38.8848 11.616C39.0622 11.1587 39.3515 10.8133 39.7528 10.58C40.1635 10.3373 40.6395 10.216 41.1808 10.216C41.7408 10.216 42.2355 10.3373 42.6648 10.58C43.1035 10.8227 43.4442 11.1633 43.6868 11.602C43.9295 12.0313 44.0508 12.5307 44.0508 13.1V18H42.2168V13.534C42.2168 13.198 42.1515 12.9087 42.0208 12.666C41.8902 12.4233 41.7082 12.2367 41.4748 12.106C41.2508 11.966 40.9848 11.896 40.6768 11.896C40.3782 11.896 40.1122 11.966 39.8788 12.106C39.6455 12.2367 39.4635 12.4233 39.3328 12.666C39.2022 12.9087 39.1368 13.198 39.1368 13.534V18H37.3028ZM50.5437 18.168C49.8063 18.168 49.1483 17.9953 48.5697 17.65C47.991 17.2953 47.5337 16.8147 47.1977 16.208C46.8617 15.6013 46.6937 14.9293 46.6937 14.192C46.6937 13.4453 46.8617 12.7733 47.1977 12.176C47.5337 11.5787 47.991 11.1027 48.5697 10.748C49.1577 10.3933 49.811 10.216 50.5297 10.216C51.1083 10.216 51.6217 10.3327 52.0697 10.566C52.527 10.79 52.8863 11.1073 53.1477 11.518L52.8677 11.896V7.402H54.7017V18H52.9657V16.53L53.1617 16.894C52.9003 17.3047 52.5363 17.622 52.0697 17.846C51.603 18.0607 51.0943 18.168 50.5437 18.168ZM50.7397 16.488C51.1597 16.488 51.5283 16.39 51.8457 16.194C52.163 15.998 52.4103 15.7273 52.5877 15.382C52.7743 15.0367 52.8677 14.64 52.8677 14.192C52.8677 13.7533 52.7743 13.3613 52.5877 13.016C52.4103 12.6613 52.163 12.386 51.8457 12.19C51.5283 11.994 51.1597 11.896 50.7397 11.896C50.329 11.896 49.9603 11.9987 49.6337 12.204C49.307 12.4 49.0503 12.6707 48.8637 13.016C48.6863 13.352 48.5977 13.744 48.5977 14.192C48.5977 14.64 48.6863 15.0367 48.8637 15.382C49.0503 15.7273 49.307 15.998 49.6337 16.194C49.9603 16.39 50.329 16.488 50.7397 16.488ZM61.5319 18.168C60.7852 18.168 60.1039 17.9953 59.4879 17.65C58.8812 17.3047 58.3959 16.8333 58.0319 16.236C57.6772 15.6387 57.4999 14.9573 57.4999 14.192C57.4999 13.4267 57.6772 12.7453 58.0319 12.148C58.3959 11.5507 58.8812 11.0793 59.4879 10.734C60.0946 10.3887 60.7759 10.216 61.5319 10.216C62.2786 10.216 62.9552 10.3887 63.5619 10.734C64.1686 11.0793 64.6492 11.5507 65.0039 12.148C65.3679 12.736 65.5499 13.4173 65.5499 14.192C65.5499 14.9573 65.3679 15.6387 65.0039 16.236C64.6399 16.8333 64.1546 17.3047 63.5479 17.65C62.9412 17.9953 62.2692 18.168 61.5319 18.168ZM61.5319 16.488C61.9426 16.488 62.3019 16.39 62.6099 16.194C62.9272 15.998 63.1746 15.7273 63.3519 15.382C63.5386 15.0273 63.6319 14.6307 63.6319 14.192C63.6319 13.744 63.5386 13.352 63.3519 13.016C63.1746 12.6707 62.9272 12.4 62.6099 12.204C62.3019 11.9987 61.9426 11.896 61.5319 11.896C61.1119 11.896 60.7432 11.9987 60.4259 12.204C60.1086 12.4 59.8566 12.6707 59.6699 13.016C59.4926 13.352 59.4039 13.744 59.4039 14.192C59.4039 14.6307 59.4926 15.0273 59.6699 15.382C59.8566 15.7273 60.1086 15.998 60.4259 16.194C60.7432 16.39 61.1119 16.488 61.5319 16.488ZM68.3407 18V10.384H70.0627V11.882L69.9227 11.616C70.1001 11.1587 70.3894 10.8133 70.7907 10.58C71.2014 10.3373 71.6774 10.216 72.2187 10.216C72.7787 10.216 73.2734 10.3373 73.7027 10.58C74.1414 10.8227 74.4821 11.1633 74.7247 11.602C74.9674 12.0313 75.0887 12.5307 75.0887 13.1V18H73.2547V13.534C73.2547 13.198 73.1894 12.9087 73.0587 12.666C72.9281 12.4233 72.7461 12.2367 72.5127 12.106C72.2887 11.966 72.0227 11.896 71.7147 11.896C71.4161 11.896 71.1501 11.966 70.9167 12.106C70.6834 12.2367 70.5014 12.4233 70.3707 12.666C70.2401 12.9087 70.1747 13.198 70.1747 13.534V18H68.3407ZM81.7355 21.08C81.1662 21.08 80.6389 20.9867 80.1535 20.8C79.6682 20.6133 79.2482 20.352 78.8935 20.016C78.5482 19.6893 78.2962 19.302 78.1375 18.854L79.8455 18.21C79.9575 18.5647 80.1769 18.8493 80.5035 19.064C80.8395 19.288 81.2502 19.4 81.7355 19.4C82.1089 19.4 82.4355 19.33 82.7155 19.19C83.0049 19.05 83.2289 18.8447 83.3875 18.574C83.5462 18.3127 83.6255 17.9953 83.6255 17.622V15.886L83.9755 16.306C83.7142 16.7633 83.3642 17.1087 82.9255 17.342C82.4869 17.5753 81.9875 17.692 81.4275 17.692C80.7182 17.692 80.0835 17.5287 79.5235 17.202C78.9635 16.8753 78.5249 16.4273 78.2075 15.858C77.8902 15.2887 77.7315 14.6493 77.7315 13.94C77.7315 13.2213 77.8902 12.582 78.2075 12.022C78.5249 11.462 78.9589 11.0233 79.5095 10.706C80.0602 10.3793 80.6855 10.216 81.3855 10.216C81.9549 10.216 82.4542 10.3373 82.8835 10.58C83.3222 10.8133 83.6862 11.154 83.9755 11.602L83.7235 12.064V10.384H85.4595V17.622C85.4595 18.2847 85.2962 18.8773 84.9695 19.4C84.6522 19.9227 84.2135 20.3333 83.6535 20.632C83.1029 20.9307 82.4635 21.08 81.7355 21.08ZM81.6515 15.998C82.0435 15.998 82.3842 15.914 82.6735 15.746C82.9722 15.5687 83.2055 15.326 83.3735 15.018C83.5415 14.71 83.6255 14.3553 83.6255 13.954C83.6255 13.562 83.5369 13.212 83.3595 12.904C83.1915 12.5867 82.9582 12.3393 82.6595 12.162C82.3702 11.9847 82.0342 11.896 81.6515 11.896C81.2689 11.896 80.9235 11.9847 80.6155 12.162C80.3075 12.3393 80.0649 12.5867 79.8875 12.904C79.7195 13.212 79.6355 13.562 79.6355 13.954C79.6355 14.346 79.7195 14.696 79.8875 15.004C80.0649 15.312 80.3029 15.5547 80.6015 15.732C80.9095 15.9093 81.2595 15.998 81.6515 15.998Z" fill="#2E384E"/>
<path fill-rule="evenodd" clip-rule="evenodd" d="M9.07896 1.14596C11.4846 -1.34726 15.9031 0.869171 16.6905 1.78769C17.4021 2.61796 21.0415 12.483 20.6362 16.6551H15.5155H15.3053L15.1583 16.8053L13.95 18.0391L12.4179 15.2593L11.9933 14.489L11.5486 15.2478L9.55671 18.6464L6.74818 13.4297L6.28295 12.5656L5.85739 13.4499L4.31494 16.6551H0V10.9421L0.00284874 10.9428V10.4113C0.803805 9.99809 1.72863 9.76108 2.71465 9.76108C4.77114 9.76108 6.56311 10.7875 7.51027 12.3078C8.22775 11.7969 9.14631 11.4901 10.1479 11.4901C11.3677 11.4901 12.4649 11.9451 13.225 12.6698C14.725 11.2943 14.8963 5.88444 14.6425 5.23406C13.6908 6.89616 11.0664 6.24847 10.1479 5.82452C9.22913 5.40056 6.6733 3.63912 9.07896 1.14596ZM0 17.6551V23.9987C0 23.9987 3.80547 24.1955 4.10988 19.7996L4.10962 19.7989C5.03537 21.1432 7.98494 22.1664 9.80249 22.1061L9.80437 22.106C12.6591 22.0114 16.4516 21.8856 19.6645 18.8056C19.9615 18.51 20.1997 18.1611 20.3615 17.775V17.7748C20.38 17.7362 20.3976 17.6964 20.4143 17.6551H15.7257L14.194 19.2192L13.7235 19.6997L13.3989 19.1108L11.9666 16.5122L9.96957 19.9196L9.5197 20.6871L9.09796 19.9038L6.3329 14.7679L5.07975 17.3719L4.94347 17.6551H4.6292H0Z" fill="#2E384E"/>
</svg>
