<svg width="87" height="24" viewBox="0 0 87 24" fill="none" xmlns="http://www.w3.org/2000/svg">
<g clip-path="url(#clip0_31_402)">
<path d="M18.0938 10.7812C18.6115 10.7812 19.0312 10.3615 19.0312 9.84375C19.0312 9.32598 18.6115 8.90625 18.0938 8.90625C17.576 8.90625 17.1562 9.32598 17.1562 9.84375C17.1562 10.3615 17.576 10.7812 18.0938 10.7812Z" fill="#96A0B0"/>
<path d="M20.25 1.875H19.0312V0.9375C19.0312 0.419719 18.6115 0 18.0938 0C17.576 0 17.1562 0.419719 17.1562 0.9375V1.875H12.8906V0.9375C12.8906 0.419719 12.4709 0 11.9531 0C11.4353 0 11.0156 0.419719 11.0156 0.9375V1.875H6.79688V0.9375C6.79688 0.419719 6.37716 0 5.85938 0C5.34159 0 4.92188 0.419719 4.92188 0.9375V1.875H3.75C1.68225 1.875 0 3.55725 0 5.625V20.25C0 22.3177 1.68225 24 3.75 24H10.9219C11.4397 24 11.8594 23.5803 11.8594 23.0625C11.8594 22.5447 11.4397 22.125 10.9219 22.125H3.75C2.71613 22.125 1.875 21.2839 1.875 20.25V5.625C1.875 4.59113 2.71613 3.75 3.75 3.75H4.92188V4.6875C4.92188 5.20528 5.34159 5.625 5.85938 5.625C6.37716 5.625 6.79688 5.20528 6.79688 4.6875V3.75H11.0156V4.6875C11.0156 5.20528 11.4353 5.625 11.9531 5.625C12.4709 5.625 12.8906 5.20528 12.8906 4.6875V3.75H17.1562V4.6875C17.1562 5.20528 17.576 5.625 18.0938 5.625C18.6115 5.625 19.0312 5.20528 19.0312 4.6875V3.75H20.25C21.2839 3.75 22.125 4.59113 22.125 5.625V10.9688C22.125 11.4865 22.5447 11.9062 23.0625 11.9062C23.5803 11.9062 24 11.4865 24 10.9688V5.625C24 3.55725 22.3177 1.875 20.25 1.875Z" fill="#96A0B0"/>
<path d="M14.0156 10.7812C14.5334 10.7812 14.9531 10.3615 14.9531 9.84375C14.9531 9.32598 14.5334 8.90625 14.0156 8.90625C13.4979 8.90625 13.0781 9.32598 13.0781 9.84375C13.0781 10.3615 13.4979 10.7812 14.0156 10.7812Z" fill="#96A0B0"/>
<path d="M9.9375 14.8594C10.4553 14.8594 10.875 14.4396 10.875 13.9219C10.875 13.4041 10.4553 12.9844 9.9375 12.9844C9.41973 12.9844 9 13.4041 9 13.9219C9 14.4396 9.41973 14.8594 9.9375 14.8594Z" fill="#96A0B0"/>
<path d="M5.85938 10.7812C6.37714 10.7812 6.79688 10.3615 6.79688 9.84375C6.79688 9.32598 6.37714 8.90625 5.85938 8.90625C5.34161 8.90625 4.92188 9.32598 4.92188 9.84375C4.92188 10.3615 5.34161 10.7812 5.85938 10.7812Z" fill="#96A0B0"/>
<path d="M5.85938 14.8594C6.37714 14.8594 6.79688 14.4396 6.79688 13.9219C6.79688 13.4041 6.37714 12.9844 5.85938 12.9844C5.34161 12.9844 4.92188 13.4041 4.92188 13.9219C4.92188 14.4396 5.34161 14.8594 5.85938 14.8594Z" fill="#96A0B0"/>
<path d="M5.85938 18.9375C6.37714 18.9375 6.79688 18.5178 6.79688 18C6.79688 17.4822 6.37714 17.0625 5.85938 17.0625C5.34161 17.0625 4.92188 17.4822 4.92188 18C4.92188 18.5178 5.34161 18.9375 5.85938 18.9375Z" fill="#96A0B0"/>
<path d="M9.9375 18.9375C10.4553 18.9375 10.875 18.5178 10.875 18C10.875 17.4822 10.4553 17.0625 9.9375 17.0625C9.41973 17.0625 9 17.4822 9 18C9 18.5178 9.41973 18.9375 9.9375 18.9375Z" fill="#96A0B0"/>
<path d="M9.9375 10.7812C10.4553 10.7812 10.875 10.3615 10.875 9.84375C10.875 9.32598 10.4553 8.90625 9.9375 8.90625C9.41973 8.90625 9 9.32598 9 9.84375C9 10.3615 9.41973 10.7812 9.9375 10.7812Z" fill="#96A0B0"/>
<g clip-path="url(#clip1_31_402)">
<path d="M20.8208 15.3943C22.1365 15.3943 23.2031 16.4609 23.2031 17.7767C23.2031 19.0162 22.2565 20.0346 21.0467 20.1484C20.6718 21.6851 18.8916 22.9881 17.0983 22.9881C17.086 22.9881 17.0737 22.9873 17.0614 22.9858C15.6977 22.8153 13.0781 18.0751 13.0781 15.9899C13.0781 14.198 13.7485 13.012 14.5671 13.012C14.8755 13.012 15.3757 13.1659 16.105 13.4729C16.4362 13.6124 16.6517 13.9369 16.6517 14.2963V14.7284C16.6517 15.0668 16.4605 15.3762 16.1578 15.5275L16.1347 15.5378L14.8847 16.0351C15.0125 16.6981 15.7562 17.698 17.0404 18.9534C17.2437 18.2889 17.7708 17.7601 18.4479 17.5624C18.5563 16.347 19.5773 15.3943 20.8208 15.3943Z" fill="#96A0B0"/>
</g>
</g>
<path d="M34.1399 11C34.0462 10.7131 33.9226 10.456 33.7692 10.2287C33.6186 9.99858 33.4382 9.80256 33.228 9.64062C33.0206 9.47869 32.7848 9.35511 32.5206 9.26989C32.2564 9.18466 31.9666 9.14205 31.6513 9.14205C31.1342 9.14205 30.6641 9.27557 30.2408 9.54261C29.8175 9.80966 29.4808 10.2031 29.2308 10.723C28.9808 11.2429 28.8558 11.8807 28.8558 12.6364C28.8558 13.392 28.9822 14.0298 29.2351 14.5497C29.4879 15.0696 29.8303 15.4631 30.2621 15.7301C30.6939 15.9972 31.1797 16.1307 31.7195 16.1307C32.2195 16.1307 32.6598 16.0241 33.0405 15.8111C33.424 15.5952 33.7223 15.2912 33.9354 14.8991C34.1513 14.5043 34.2592 14.0398 34.2592 13.5057L34.5831 13.5739H31.9581V12.6364H35.282V13.5739C35.282 14.2926 35.1286 14.9176 34.8217 15.4489C34.5178 15.9801 34.0973 16.392 33.5604 16.6847C33.0263 16.9744 32.4126 17.1193 31.7195 17.1193C30.9467 17.1193 30.2678 16.9375 29.6825 16.5739C29.1001 16.2102 28.6456 15.6932 28.3189 15.0227C27.995 14.3523 27.8331 13.5568 27.8331 12.6364C27.8331 11.946 27.9254 11.3253 28.1101 10.7741C28.2976 10.2202 28.5618 9.74858 28.9027 9.35938C29.2436 8.97017 29.647 8.67188 30.1129 8.46449C30.5788 8.2571 31.0916 8.15341 31.6513 8.15341C32.1115 8.15341 32.5405 8.22301 32.9382 8.36222C33.3388 8.49858 33.6953 8.69318 34.0078 8.94602C34.3232 9.19602 34.5859 9.49574 34.7962 9.84517C35.0064 10.1918 35.1513 10.5767 35.2308 11H34.1399ZM37.6033 19.4545C37.4329 19.4545 37.2809 19.4403 37.1474 19.4119C37.0138 19.3864 36.9215 19.3608 36.8704 19.3352L37.1261 18.4489C37.3704 18.5114 37.5863 18.5341 37.7738 18.517C37.9613 18.5 38.1275 18.4162 38.2724 18.2656C38.4201 18.1179 38.555 17.8778 38.6772 17.5455L38.8647 17.0341L36.4442 10.4545H37.5352L39.342 15.6705H39.4102L41.217 10.4545H42.3079L39.5295 17.9545C39.4045 18.2926 39.2496 18.5724 39.065 18.794C38.8803 19.0185 38.6658 19.1847 38.4215 19.2926C38.18 19.4006 37.9073 19.4545 37.6033 19.4545ZM43.6353 17V10.4545H44.6069V11.4773H44.6921C44.8285 11.1278 45.0487 10.8565 45.3526 10.6634C45.6566 10.4673 46.0217 10.3693 46.4478 10.3693C46.8796 10.3693 47.239 10.4673 47.5259 10.6634C47.8157 10.8565 48.0415 11.1278 48.2035 11.4773H48.2717C48.4393 11.1392 48.6907 10.8707 49.0259 10.6719C49.3612 10.4702 49.7631 10.3693 50.2319 10.3693C50.8171 10.3693 51.2958 10.5526 51.668 10.919C52.0401 11.2827 52.2262 11.8494 52.2262 12.6193V17H51.2205V12.6193C51.2205 12.1364 51.0884 11.7912 50.8242 11.5838C50.56 11.3764 50.2489 11.2727 49.891 11.2727C49.4308 11.2727 49.0742 11.4119 48.8214 11.6903C48.5685 11.9659 48.4421 12.3153 48.4421 12.7386V17H47.4194V12.517C47.4194 12.1449 47.2987 11.8452 47.0572 11.6179C46.8157 11.3878 46.5046 11.2727 46.1239 11.2727C45.8626 11.2727 45.6183 11.3423 45.391 11.4815C45.1665 11.6207 44.9847 11.8139 44.8455 12.0611C44.7092 12.3054 44.641 12.5881 44.641 12.9091V17H43.6353ZM61.1218 8.27273V17H60.0991L55.3434 10.1477H55.2582V17H54.2013V8.27273H55.2241L59.9968 15.142H60.082V8.27273H61.1218ZM65.7592 17.1364C65.1683 17.1364 64.6499 16.9957 64.2038 16.7145C63.7607 16.4332 63.4141 16.0398 63.1641 15.5341C62.9169 15.0284 62.7933 14.4375 62.7933 13.7614C62.7933 13.0795 62.9169 12.4844 63.1641 11.9759C63.4141 11.4673 63.7607 11.0724 64.2038 10.7912C64.6499 10.5099 65.1683 10.3693 65.7592 10.3693C66.3501 10.3693 66.8672 10.5099 67.3104 10.7912C67.7564 11.0724 68.103 11.4673 68.3501 11.9759C68.6001 12.4844 68.7251 13.0795 68.7251 13.7614C68.7251 14.4375 68.6001 15.0284 68.3501 15.5341C68.103 16.0398 67.7564 16.4332 67.3104 16.7145C66.8672 16.9957 66.3501 17.1364 65.7592 17.1364ZM65.7592 16.233C66.2081 16.233 66.5774 16.1179 66.8672 15.8878C67.157 15.6577 67.3714 15.3551 67.5107 14.9801C67.6499 14.6051 67.7195 14.1989 67.7195 13.7614C67.7195 13.3239 67.6499 12.9162 67.5107 12.5384C67.3714 12.1605 67.157 11.8551 66.8672 11.6222C66.5774 11.3892 66.2081 11.2727 65.7592 11.2727C65.3104 11.2727 64.9411 11.3892 64.6513 11.6222C64.3615 11.8551 64.147 12.1605 64.0078 12.5384C63.8686 12.9162 63.799 13.3239 63.799 13.7614C63.799 14.1989 63.8686 14.6051 64.0078 14.9801C64.147 15.3551 64.3615 15.6577 64.6513 15.8878C64.9411 16.1179 65.3104 16.233 65.7592 16.233ZM73.1069 10.4545V11.3068H69.7148V10.4545H73.1069ZM70.7035 8.88636H71.7092V15.125C71.7092 15.4091 71.7504 15.6222 71.8327 15.7642C71.918 15.9034 72.0259 15.9972 72.1566 16.0455C72.2901 16.0909 72.4308 16.1136 72.5785 16.1136C72.6893 16.1136 72.7802 16.108 72.8512 16.0966C72.9222 16.0824 72.979 16.071 73.0217 16.0625L73.2262 16.9659C73.158 16.9915 73.0629 17.017 72.9407 17.0426C72.8185 17.071 72.6637 17.0852 72.4762 17.0852C72.1921 17.0852 71.9137 17.0241 71.641 16.902C71.3711 16.7798 71.1467 16.5938 70.9677 16.3438C70.7915 16.0938 70.7035 15.7784 70.7035 15.3977V8.88636ZM77.2937 17.1364C76.663 17.1364 76.119 16.9972 75.6616 16.7188C75.207 16.4375 74.8562 16.0455 74.609 15.5426C74.3647 15.0369 74.2425 14.4489 74.2425 13.7784C74.2425 13.108 74.3647 12.517 74.609 12.0057C74.8562 11.4915 75.1999 11.0909 75.6403 10.804C76.0835 10.5142 76.6005 10.3693 77.1914 10.3693C77.5323 10.3693 77.869 10.4261 78.2013 10.5398C78.5337 10.6534 78.8363 10.8381 79.109 11.0938C79.3817 11.3466 79.5991 11.6818 79.761 12.0994C79.9229 12.517 80.0039 13.0312 80.0039 13.642V14.0682H74.9585V13.1989H78.9812C78.9812 12.8295 78.9073 12.5 78.7596 12.2102C78.6147 11.9205 78.4073 11.6918 78.1374 11.5241C77.8704 11.3565 77.555 11.2727 77.1914 11.2727C76.7908 11.2727 76.4442 11.3722 76.1516 11.571C75.8619 11.767 75.6388 12.0227 75.4826 12.3381C75.3263 12.6534 75.2482 12.9915 75.2482 13.3523V13.9318C75.2482 14.4261 75.3335 14.8452 75.5039 15.1889C75.6772 15.5298 75.9173 15.7898 76.2241 15.9688C76.5309 16.1449 76.8874 16.233 77.2937 16.233C77.5579 16.233 77.7965 16.196 78.0096 16.1222C78.2255 16.0455 78.4116 15.9318 78.5678 15.7812C78.7241 15.6278 78.8448 15.4375 78.93 15.2102L79.9016 15.483C79.7994 15.8125 79.6275 16.1023 79.386 16.3523C79.1445 16.5994 78.8462 16.7926 78.4911 16.9318C78.136 17.0682 77.7369 17.1364 77.2937 17.1364ZM86.1701 11.9205L85.2667 12.1761C85.2099 12.0256 85.1261 11.8793 85.0153 11.7372C84.9073 11.5923 84.7596 11.473 84.5721 11.3793C84.3846 11.2855 84.1445 11.2386 83.8519 11.2386C83.4513 11.2386 83.1175 11.331 82.8505 11.5156C82.5863 11.6974 82.4542 11.929 82.4542 12.2102C82.4542 12.4602 82.5451 12.6577 82.7269 12.8026C82.9087 12.9474 83.1928 13.0682 83.5792 13.1648L84.5508 13.4034C85.136 13.5455 85.5721 13.7628 85.859 14.0554C86.146 14.3452 86.2894 14.7187 86.2894 15.1761C86.2894 15.5511 86.1815 15.8864 85.9656 16.1818C85.7525 16.4773 85.4542 16.7102 85.0707 16.8807C84.6871 17.0511 84.2411 17.1364 83.7326 17.1364C83.065 17.1364 82.5124 16.9915 82.0749 16.7017C81.6374 16.4119 81.3604 15.9886 81.244 15.4318L82.1985 15.1932C82.2894 15.5455 82.4613 15.8097 82.7141 15.9858C82.9698 16.1619 83.3036 16.25 83.7156 16.25C84.1843 16.25 84.5565 16.1506 84.832 15.9517C85.1104 15.75 85.2496 15.5085 85.2496 15.2273C85.2496 15 85.1701 14.8097 85.011 14.6562C84.8519 14.5 84.6076 14.3835 84.2781 14.3068L83.1871 14.0511C82.5877 13.9091 82.1474 13.6889 81.8661 13.3906C81.5877 13.0895 81.4485 12.7131 81.4485 12.2614C81.4485 11.892 81.5522 11.5653 81.7596 11.2812C81.9698 10.9972 82.2553 10.7741 82.6161 10.6122C82.9798 10.4503 83.3917 10.3693 83.8519 10.3693C84.4996 10.3693 85.0082 10.5114 85.3775 10.7955C85.7496 11.0795 86.0138 11.4545 86.1701 11.9205Z" fill="#96A0B0"/>
<defs>
<clipPath id="clip0_31_402">
<rect width="24" height="24" fill="white"/>
</clipPath>
<clipPath id="clip1_31_402">
<rect width="10.125" height="10.125" fill="white" transform="translate(13.0781 12.9375)"/>
</clipPath>
</defs>
</svg>
