<svg width="93" height="24" viewBox="0 0 93 24" fill="none" xmlns="http://www.w3.org/2000/svg">
<path d="M5.67188 3.21094H2.10938C1.72073 3.21094 1.40625 3.52542 1.40625 3.91406C1.40625 4.3027 1.72073 4.61719 2.10938 4.61719H5.67188C6.06052 4.61719 6.375 4.3027 6.375 3.91406C6.375 3.52542 6.06052 3.21094 5.67188 3.21094Z" fill="#96A0B0"/>
<path d="M5.67188 8.83594H2.10938C1.72073 8.83594 1.40625 9.15042 1.40625 9.53906C1.40625 9.9277 1.72073 10.2422 2.10938 10.2422H5.67188C6.06052 10.2422 6.375 9.9277 6.375 9.53906C6.375 9.15042 6.06052 8.83594 5.67188 8.83594Z" fill="#96A0B0"/>
<path d="M4.26562 6.02344H0.703125C0.314484 6.02344 0 6.33792 0 6.72656C0 7.1152 0.314484 7.42969 0.703125 7.42969H4.26562C4.65427 7.42969 4.96875 7.1152 4.96875 6.72656C4.96875 6.33792 4.65427 6.02344 4.26562 6.02344Z" fill="#96A0B0"/>
<path d="M22.5938 9.53905H18.3281V6.72655C18.3281 5.49158 16.8174 4.84133 15.9272 5.73271L10.3026 11.3573C9.75329 11.9066 9.75329 12.7965 10.3026 13.3458L13.5271 16.5703L9.5995 20.4979C9.05017 21.0472 9.05017 21.9371 9.5995 22.4864C10.1488 23.0357 11.0387 23.0358 11.588 22.4864L16.5099 17.5646C17.0592 17.0152 17.0592 16.1254 16.5099 15.576L13.2854 12.3516L15.5156 10.1213V10.9453C15.5156 11.7219 16.1453 12.3516 16.9219 12.3516H22.5938C23.3703 12.3516 24 11.7219 24 10.9453C24 10.1687 23.3703 9.53905 22.5938 9.53905Z" fill="#96A0B0"/>
<path d="M13.1316 2.39251C12.5727 2.02102 11.8311 2.09452 11.3573 2.56829L7.49012 6.43548C6.94079 6.9848 6.94079 7.87468 7.49012 8.42401C8.03945 8.97334 8.92937 8.97329 9.4787 8.42396L12.5308 5.37184L13.559 6.11246L14.9327 4.73874C15.1625 4.50896 15.4335 4.3306 15.7299 4.19134L13.1316 2.39251Z" fill="#96A0B0"/>
<path d="M9.30836 14.3401C8.95206 13.9838 8.71421 13.5453 8.58882 13.0711L1.162 20.4979C0.612668 21.0473 0.612668 21.9371 1.162 22.4865C1.71128 23.0357 2.6012 23.0358 3.15053 22.4865L10.3026 15.3344L9.30836 14.3401Z" fill="#96A0B0"/>
<path d="M19.0312 5.32031C20.1962 5.32031 21.1406 4.37591 21.1406 3.21094C21.1406 2.04596 20.1962 1.10156 19.0312 1.10156C17.8663 1.10156 16.9219 2.04596 16.9219 3.21094C16.9219 4.37591 17.8663 5.32031 19.0312 5.32031Z" fill="#96A0B0"/>
<path d="M29.8991 17C29.4431 17 29.1191 16.912 28.9271 16.736C28.7431 16.552 28.6511 16.284 28.6511 15.932C28.6511 15.836 28.6551 15.676 28.6631 15.452C28.6791 15.22 28.6991 14.948 28.7231 14.636C28.7471 14.324 28.7711 13.984 28.7951 13.616C28.8271 13.24 28.8591 12.86 28.8911 12.476C28.9551 11.668 28.9991 11.012 29.0231 10.508C29.0551 10.004 29.0791 9.608 29.0951 9.32C29.1191 8.96 29.1431 8.732 29.1671 8.636C29.1911 8.532 29.2431 8.48 29.3231 8.48C29.5711 8.48 29.8231 8.476 30.0791 8.468C30.3431 8.452 30.5951 8.436 30.8351 8.42C31.0751 8.404 31.2991 8.392 31.5071 8.384C31.7231 8.368 31.9151 8.36 32.0831 8.36C32.5951 8.36 33.0351 8.424 33.4031 8.552C33.7711 8.68 34.0671 8.86 34.2911 9.092C34.5231 9.324 34.6911 9.604 34.7951 9.932C34.9071 10.26 34.9631 10.628 34.9631 11.036C34.9631 11.66 34.8391 12.216 34.5911 12.704C34.3431 13.192 33.9471 13.564 33.4031 13.82L34.4111 15.26C34.5951 15.532 34.7351 15.744 34.8311 15.896C34.9271 16.04 34.9751 16.148 34.9751 16.22C34.9751 16.276 34.9391 16.356 34.8671 16.46C34.8031 16.556 34.7031 16.656 34.5671 16.76C34.4391 16.856 34.2791 16.94 34.0871 17.012C33.9031 17.084 33.6951 17.12 33.4631 17.12C33.2071 17.12 32.9831 17.036 32.7911 16.868C32.6071 16.7 32.4391 16.48 32.2871 16.208C32.1431 15.928 32.0151 15.608 31.9031 15.248C31.7991 14.888 31.6991 14.512 31.6031 14.12C31.3151 14.104 31.0791 14.076 30.8951 14.036C30.8711 14.388 30.8471 14.724 30.8231 15.044C30.7991 15.364 30.7791 15.652 30.7631 15.908C30.7471 16.156 30.7311 16.364 30.7151 16.532C30.6991 16.692 30.6911 16.788 30.6911 16.82C30.6831 16.884 30.6671 16.932 30.6431 16.964C30.6191 16.988 30.5711 17 30.4991 17H29.8991ZM31.8431 10.16C31.7471 10.16 31.6391 10.168 31.5191 10.184C31.3991 10.192 31.2711 10.204 31.1351 10.22C31.1191 10.5 31.0991 10.836 31.0751 11.228C31.0591 11.612 31.0351 12.024 31.0031 12.464C31.2831 12.528 31.5271 12.56 31.7351 12.56C31.9831 12.56 32.1831 12.512 32.3351 12.416C32.4951 12.32 32.6191 12.204 32.7071 12.068C32.7951 11.924 32.8511 11.772 32.8751 11.612C32.9071 11.452 32.9231 11.308 32.9231 11.18C32.9231 10.852 32.8431 10.6 32.6831 10.424C32.5231 10.248 32.2431 10.16 31.8431 10.16ZM38.2293 11.42C38.2293 11.588 38.2133 11.824 38.1813 12.128C38.1573 12.432 38.1293 12.748 38.0973 13.076C38.0733 13.404 38.0453 13.712 38.0133 14C37.9893 14.288 37.9773 14.496 37.9773 14.624C37.9773 14.904 38.0453 15.124 38.1813 15.284C38.3253 15.436 38.5213 15.512 38.7693 15.512C38.9853 15.512 39.1653 15.428 39.3093 15.26C39.4613 15.084 39.5813 14.86 39.6693 14.588C39.7653 14.308 39.8413 13.992 39.8973 13.64C39.9533 13.288 39.9933 12.932 40.0173 12.572C40.0493 12.212 40.0733 11.864 40.0893 11.528C40.1133 11.184 40.1373 10.888 40.1613 10.64C40.1693 10.576 40.1933 10.52 40.2333 10.472C40.2733 10.424 40.3373 10.4 40.4253 10.4H40.8573C41.1053 10.4 41.3053 10.428 41.4573 10.484C41.6173 10.532 41.7413 10.604 41.8293 10.7C41.9253 10.796 41.9893 10.916 42.0213 11.06C42.0613 11.196 42.0813 11.356 42.0813 11.54C42.0813 11.66 42.0733 11.832 42.0573 12.056C42.0493 12.272 42.0293 12.576 41.9973 12.968C41.9653 13.352 41.9253 13.844 41.8773 14.444C41.8373 15.036 41.7853 15.772 41.7213 16.652C41.7053 16.82 41.6853 16.92 41.6613 16.952C41.6453 16.984 41.5813 17 41.4693 17H41.0013C40.7613 17 40.5613 16.972 40.4013 16.916C40.2493 16.86 40.1253 16.788 40.0293 16.7C39.9333 16.612 39.8653 16.508 39.8253 16.388C39.7853 16.268 39.7613 16.144 39.7533 16.016C39.6333 16.224 39.4973 16.4 39.3453 16.544C39.2013 16.688 39.0493 16.804 38.8893 16.892C38.7293 16.972 38.5653 17.028 38.3973 17.06C38.2293 17.1 38.0653 17.12 37.9053 17.12C37.6013 17.12 37.3293 17.072 37.0893 16.976C36.8493 16.872 36.6453 16.736 36.4773 16.568C36.3173 16.4 36.1933 16.2 36.1053 15.968C36.0173 15.736 35.9733 15.488 35.9733 15.224C35.9733 15.12 35.9773 14.952 35.9853 14.72C36.0013 14.48 36.0173 14.212 36.0333 13.916C36.0573 13.62 36.0813 13.308 36.1053 12.98C36.1293 12.644 36.1493 12.328 36.1653 12.032C36.1893 11.736 36.2093 11.476 36.2253 11.252C36.2493 11.028 36.2653 10.868 36.2733 10.772C36.2893 10.628 36.3213 10.532 36.3693 10.484C36.4173 10.428 36.4973 10.4 36.6093 10.4H36.9933C37.2413 10.4 37.4453 10.424 37.6053 10.472C37.7653 10.52 37.8893 10.588 37.9773 10.676C38.0733 10.764 38.1373 10.872 38.1693 11C38.2093 11.12 38.2293 11.26 38.2293 11.42ZM47.2246 15.944C47.2246 15.768 47.2366 15.54 47.2606 15.26C47.2926 14.972 47.3206 14.672 47.3446 14.36C47.3766 14.04 47.4046 13.732 47.4286 13.436C47.4606 13.14 47.4766 12.892 47.4766 12.692C47.4766 12.484 47.4246 12.3 47.3206 12.14C47.2246 11.972 47.0326 11.888 46.7446 11.888C46.4646 11.888 46.2326 11.956 46.0486 12.092C45.8646 12.228 45.7086 12.476 45.5806 12.836C45.4606 13.196 45.3606 13.692 45.2806 14.324C45.2006 14.956 45.1246 15.768 45.0526 16.76C45.0446 16.856 45.0246 16.92 44.9926 16.952C44.9606 16.984 44.8926 17 44.7886 17H44.3566C44.1086 17 43.9046 16.976 43.7446 16.928C43.5926 16.872 43.4686 16.796 43.3726 16.7C43.2846 16.604 43.2206 16.488 43.1806 16.352C43.1486 16.208 43.1326 16.044 43.1326 15.86C43.1326 15.74 43.1366 15.572 43.1446 15.356C43.1606 15.132 43.1846 14.828 43.2166 14.444C43.2486 14.052 43.2846 13.56 43.3246 12.968C43.3726 12.368 43.4286 11.628 43.4926 10.748C43.5006 10.572 43.5206 10.468 43.5526 10.436C43.5766 10.412 43.6406 10.4 43.7446 10.4H44.2126C44.4526 10.4 44.6486 10.428 44.8006 10.484C44.9606 10.54 45.0886 10.616 45.1846 10.712C45.2806 10.8 45.3486 10.908 45.3886 11.036C45.4286 11.156 45.4526 11.28 45.4606 11.408C45.7086 10.984 45.9926 10.692 46.3126 10.532C46.6326 10.364 47.0326 10.28 47.5126 10.28C47.8486 10.28 48.1406 10.316 48.3886 10.388C48.6366 10.46 48.8406 10.584 49.0006 10.76C49.1686 10.928 49.2926 11.152 49.3726 11.432C49.4526 11.704 49.4926 12.044 49.4926 12.452C49.4926 12.58 49.4846 12.764 49.4686 13.004C49.4526 13.244 49.4326 13.508 49.4086 13.796C49.3846 14.076 49.3566 14.372 49.3246 14.684C49.3006 14.988 49.2766 15.272 49.2526 15.536C49.2286 15.8 49.2086 16.032 49.1926 16.232C49.1766 16.432 49.1686 16.564 49.1686 16.628C49.1686 16.804 49.1486 16.912 49.1086 16.952C49.0686 16.984 48.9806 17 48.8446 17H48.4606C48.2046 17 47.9966 16.976 47.8366 16.928C47.6766 16.88 47.5526 16.812 47.4646 16.724C47.3766 16.636 47.3126 16.528 47.2726 16.4C47.2406 16.264 47.2246 16.112 47.2246 15.944ZM54.6543 15.944C54.6543 15.768 54.6663 15.54 54.6903 15.26C54.7223 14.972 54.7503 14.672 54.7743 14.36C54.8063 14.04 54.8343 13.732 54.8583 13.436C54.8903 13.14 54.9063 12.892 54.9063 12.692C54.9063 12.484 54.8543 12.3 54.7503 12.14C54.6543 11.972 54.4623 11.888 54.1743 11.888C53.8943 11.888 53.6623 11.956 53.4783 12.092C53.2943 12.228 53.1383 12.476 53.0103 12.836C52.8903 13.196 52.7903 13.692 52.7103 14.324C52.6303 14.956 52.5543 15.768 52.4823 16.76C52.4743 16.856 52.4543 16.92 52.4223 16.952C52.3903 16.984 52.3223 17 52.2183 17H51.7863C51.5383 17 51.3343 16.976 51.1743 16.928C51.0223 16.872 50.8983 16.796 50.8023 16.7C50.7143 16.604 50.6503 16.488 50.6103 16.352C50.5783 16.208 50.5623 16.044 50.5623 15.86C50.5623 15.74 50.5663 15.572 50.5743 15.356C50.5903 15.132 50.6143 14.828 50.6463 14.444C50.6783 14.052 50.7143 13.56 50.7543 12.968C50.8023 12.368 50.8583 11.628 50.9223 10.748C50.9303 10.572 50.9503 10.468 50.9823 10.436C51.0063 10.412 51.0703 10.4 51.1743 10.4H51.6423C51.8823 10.4 52.0783 10.428 52.2303 10.484C52.3903 10.54 52.5183 10.616 52.6143 10.712C52.7103 10.8 52.7783 10.908 52.8183 11.036C52.8583 11.156 52.8823 11.28 52.8903 11.408C53.1383 10.984 53.4223 10.692 53.7423 10.532C54.0623 10.364 54.4623 10.28 54.9423 10.28C55.2783 10.28 55.5703 10.316 55.8183 10.388C56.0663 10.46 56.2703 10.584 56.4303 10.76C56.5983 10.928 56.7223 11.152 56.8023 11.432C56.8823 11.704 56.9223 12.044 56.9223 12.452C56.9223 12.58 56.9143 12.764 56.8983 13.004C56.8823 13.244 56.8623 13.508 56.8383 13.796C56.8143 14.076 56.7863 14.372 56.7543 14.684C56.7303 14.988 56.7063 15.272 56.6823 15.536C56.6583 15.8 56.6383 16.032 56.6223 16.232C56.6063 16.432 56.5983 16.564 56.5983 16.628C56.5983 16.804 56.5783 16.912 56.5383 16.952C56.4983 16.984 56.4103 17 56.2743 17H55.8903C55.6343 17 55.4263 16.976 55.2663 16.928C55.1063 16.88 54.9823 16.812 54.8943 16.724C54.8063 16.636 54.7423 16.528 54.7023 16.4C54.6703 16.264 54.6543 16.112 54.6543 15.944ZM59.228 17C58.98 17 58.776 16.976 58.616 16.928C58.464 16.872 58.34 16.796 58.244 16.7C58.156 16.604 58.092 16.488 58.052 16.352C58.02 16.208 58.004 16.044 58.004 15.86C58.004 15.74 58.008 15.572 58.016 15.356C58.032 15.132 58.056 14.828 58.088 14.444C58.12 14.052 58.156 13.56 58.196 12.968C58.244 12.368 58.3 11.628 58.364 10.748C58.372 10.572 58.392 10.468 58.424 10.436C58.448 10.412 58.512 10.4 58.616 10.4H59.084C59.332 10.4 59.532 10.424 59.684 10.472C59.844 10.52 59.968 10.592 60.056 10.688C60.152 10.784 60.216 10.9 60.248 11.036C60.288 11.172 60.308 11.324 60.308 11.492C60.308 11.612 60.3 11.792 60.284 12.032C60.268 12.272 60.244 12.6 60.212 13.016C60.188 13.424 60.152 13.936 60.104 14.552C60.056 15.16 59.996 15.896 59.924 16.76C59.916 16.856 59.896 16.92 59.864 16.952C59.832 16.984 59.764 17 59.66 17H59.228ZM58.376 8.984C58.376 8.664 58.492 8.412 58.724 8.228C58.956 8.044 59.268 7.952 59.66 7.952C60.004 7.952 60.252 8.024 60.404 8.168C60.564 8.304 60.644 8.488 60.644 8.72C60.644 9.016 60.532 9.264 60.308 9.464C60.092 9.656 59.772 9.752 59.348 9.752C58.7 9.752 58.376 9.496 58.376 8.984ZM65.459 15.944C65.459 15.768 65.471 15.54 65.495 15.26C65.527 14.972 65.555 14.672 65.579 14.36C65.611 14.04 65.639 13.732 65.663 13.436C65.695 13.14 65.711 12.892 65.711 12.692C65.711 12.484 65.659 12.3 65.555 12.14C65.459 11.972 65.267 11.888 64.979 11.888C64.699 11.888 64.467 11.956 64.283 12.092C64.099 12.228 63.943 12.476 63.815 12.836C63.695 13.196 63.595 13.692 63.515 14.324C63.435 14.956 63.359 15.768 63.287 16.76C63.279 16.856 63.259 16.92 63.227 16.952C63.195 16.984 63.127 17 63.023 17H62.591C62.343 17 62.139 16.976 61.979 16.928C61.827 16.872 61.703 16.796 61.607 16.7C61.519 16.604 61.455 16.488 61.415 16.352C61.383 16.208 61.367 16.044 61.367 15.86C61.367 15.74 61.371 15.572 61.379 15.356C61.395 15.132 61.419 14.828 61.451 14.444C61.483 14.052 61.519 13.56 61.559 12.968C61.607 12.368 61.663 11.628 61.727 10.748C61.735 10.572 61.755 10.468 61.787 10.436C61.811 10.412 61.875 10.4 61.979 10.4H62.447C62.687 10.4 62.883 10.428 63.035 10.484C63.195 10.54 63.323 10.616 63.419 10.712C63.515 10.8 63.583 10.908 63.623 11.036C63.663 11.156 63.687 11.28 63.695 11.408C63.943 10.984 64.227 10.692 64.547 10.532C64.867 10.364 65.267 10.28 65.747 10.28C66.083 10.28 66.375 10.316 66.623 10.388C66.871 10.46 67.075 10.584 67.235 10.76C67.403 10.928 67.527 11.152 67.607 11.432C67.687 11.704 67.727 12.044 67.727 12.452C67.727 12.58 67.719 12.764 67.703 13.004C67.687 13.244 67.667 13.508 67.643 13.796C67.619 14.076 67.591 14.372 67.559 14.684C67.535 14.988 67.511 15.272 67.487 15.536C67.463 15.8 67.443 16.032 67.427 16.232C67.411 16.432 67.403 16.564 67.403 16.628C67.403 16.804 67.383 16.912 67.343 16.952C67.303 16.984 67.215 17 67.079 17H66.695C66.439 17 66.231 16.976 66.071 16.928C65.911 16.88 65.787 16.812 65.699 16.724C65.611 16.636 65.547 16.528 65.507 16.4C65.475 16.264 65.459 16.112 65.459 15.944ZM72.7207 15.584C72.5207 15.944 72.2767 16.212 71.9887 16.388C71.7007 16.556 71.3407 16.64 70.9087 16.64C70.5807 16.64 70.2807 16.588 70.0087 16.484C69.7367 16.38 69.5047 16.216 69.3127 15.992C69.1207 15.768 68.9687 15.488 68.8567 15.152C68.7527 14.808 68.7007 14.4 68.7007 13.928C68.7007 13.544 68.7407 13.14 68.8207 12.716C68.9007 12.284 69.0447 11.888 69.2527 11.528C69.4687 11.168 69.7607 10.872 70.1287 10.64C70.4967 10.4 70.9687 10.28 71.5447 10.28C71.7847 10.28 71.9887 10.308 72.1567 10.364C72.3327 10.412 72.4807 10.48 72.6007 10.568C72.7287 10.656 72.8287 10.76 72.9007 10.88C72.9807 11 73.0407 11.128 73.0807 11.264C73.0807 11.272 73.0807 11.244 73.0807 11.18C73.0887 11.108 73.0967 11.028 73.1047 10.94C73.1127 10.852 73.1167 10.768 73.1167 10.688C73.1247 10.6 73.1287 10.544 73.1287 10.52C73.1367 10.44 73.1887 10.4 73.2847 10.4H73.8367C74.2527 10.4 74.5527 10.488 74.7367 10.664C74.9287 10.832 75.0247 11.156 75.0247 11.636C75.0247 11.7 75.0207 11.848 75.0127 12.08C75.0047 12.304 74.9887 12.576 74.9647 12.896C74.9487 13.216 74.9247 13.572 74.8927 13.964C74.8607 14.348 74.8247 14.736 74.7847 15.128C74.7447 15.52 74.7007 15.896 74.6527 16.256C74.6047 16.616 74.5527 16.932 74.4967 17.204C74.4407 17.476 74.3447 17.74 74.2087 17.996C74.0727 18.252 73.8807 18.48 73.6327 18.68C73.3847 18.88 73.0647 19.04 72.6727 19.16C72.2887 19.28 71.8167 19.34 71.2567 19.34C70.8327 19.34 70.4607 19.3 70.1407 19.22C69.8287 19.14 69.5687 19.032 69.3607 18.896C69.1527 18.768 68.9927 18.62 68.8807 18.452C68.7767 18.284 68.7247 18.116 68.7247 17.948C68.7247 17.796 68.7567 17.664 68.8207 17.552C68.8847 17.44 68.9687 17.348 69.0727 17.276C69.1767 17.204 69.2887 17.148 69.4087 17.108C69.5367 17.076 69.6567 17.06 69.7687 17.06C69.9047 17.06 70.0047 17.1 70.0687 17.18C70.1327 17.26 70.2047 17.348 70.2847 17.444C70.3647 17.548 70.4767 17.64 70.6207 17.72C70.7647 17.8 70.9887 17.84 71.2927 17.84C71.8207 17.84 72.1887 17.644 72.3967 17.252C72.6127 16.868 72.7207 16.312 72.7207 15.584ZM71.7127 15.044C72.0007 15.044 72.2247 14.976 72.3847 14.84C72.5527 14.704 72.6807 14.54 72.7687 14.348C72.8567 14.156 72.9127 13.956 72.9367 13.748C72.9607 13.54 72.9727 13.36 72.9727 13.208C72.9727 12.728 72.8967 12.388 72.7447 12.188C72.6007 11.98 72.3807 11.876 72.0847 11.876C71.7887 11.876 71.5567 11.956 71.3887 12.116C71.2207 12.276 71.0927 12.468 71.0047 12.692C70.9247 12.908 70.8727 13.128 70.8487 13.352C70.8247 13.568 70.8127 13.736 70.8127 13.856C70.8127 14.256 70.8807 14.556 71.0167 14.756C71.1527 14.948 71.3847 15.044 71.7127 15.044ZM77.4538 17C76.9978 17 76.6738 16.912 76.4818 16.736C76.2978 16.552 76.2058 16.284 76.2058 15.932C76.2058 15.828 76.2098 15.664 76.2178 15.44C76.2338 15.208 76.2538 14.936 76.2778 14.624C76.3018 14.312 76.3258 13.972 76.3498 13.604C76.3818 13.236 76.4138 12.86 76.4458 12.476C76.4858 12.004 76.5178 11.6 76.5418 11.264C76.5738 10.92 76.5978 10.628 76.6138 10.388C76.6298 10.14 76.6418 9.936 76.6498 9.776C76.6658 9.608 76.6738 9.464 76.6738 9.344C76.6818 9.216 76.6858 9.1 76.6858 8.996C76.6938 8.892 76.6978 8.78 76.6978 8.66C76.6978 8.596 76.7178 8.552 76.7578 8.528C76.7978 8.496 76.8378 8.48 76.8778 8.48C77.0858 8.48 77.3138 8.476 77.5618 8.468C77.8098 8.452 78.0578 8.436 78.3058 8.42C78.5538 8.404 78.7938 8.392 79.0258 8.384C79.2578 8.368 79.4618 8.36 79.6378 8.36C80.1498 8.36 80.5898 8.424 80.9578 8.552C81.3258 8.672 81.6218 8.852 81.8458 9.092C82.0778 9.324 82.2458 9.608 82.3498 9.944C82.4618 10.28 82.5178 10.664 82.5178 11.096C82.5178 11.568 82.4538 12.024 82.3258 12.464C82.2058 12.896 82.0138 13.28 81.7498 13.616C81.4858 13.952 81.1458 14.22 80.7298 14.42C80.3138 14.62 79.8178 14.72 79.2418 14.72C78.8978 14.72 78.6058 14.684 78.3658 14.612L78.1978 16.82C78.1898 16.884 78.1738 16.932 78.1498 16.964C78.1258 16.988 78.0778 17 78.0058 17H77.4538ZM79.3978 10.16C79.2938 10.16 79.1778 10.168 79.0498 10.184C78.9218 10.192 78.7858 10.204 78.6418 10.22C78.6258 10.556 78.6058 10.964 78.5818 11.444C78.5578 11.924 78.5258 12.428 78.4858 12.956C78.6058 12.988 78.7218 13.012 78.8338 13.028C78.9538 13.036 79.0618 13.04 79.1578 13.04C79.4378 13.04 79.6618 12.976 79.8298 12.848C80.0058 12.712 80.1418 12.548 80.2378 12.356C80.3338 12.164 80.3978 11.964 80.4298 11.756C80.4618 11.548 80.4778 11.368 80.4778 11.216C80.4778 10.872 80.3978 10.612 80.2378 10.436C80.0858 10.252 79.8058 10.16 79.3978 10.16ZM82.7101 15.524C82.7101 14.804 83.0341 14.24 83.6821 13.832C84.3301 13.424 85.2861 13.204 86.5501 13.172C86.5581 13.084 86.5621 13.012 86.5621 12.956C86.5701 12.892 86.5741 12.816 86.5741 12.728C86.5741 12.472 86.5261 12.268 86.4301 12.116C86.3341 11.964 86.1341 11.888 85.8301 11.888C85.6621 11.888 85.5261 11.912 85.4221 11.96C85.3181 12.008 85.2341 12.076 85.1701 12.164C85.1061 12.244 85.0541 12.344 85.0141 12.464C84.9741 12.584 84.9381 12.716 84.9061 12.86C84.8901 12.932 84.8541 12.98 84.7981 13.004C84.7421 13.02 84.6541 13.028 84.5341 13.028C83.7181 13.028 83.3101 12.72 83.3101 12.104C83.3101 11.856 83.3661 11.62 83.4781 11.396C83.5981 11.172 83.7701 10.98 83.9941 10.82C84.2261 10.652 84.5141 10.52 84.8581 10.424C85.2021 10.328 85.6021 10.28 86.0581 10.28C86.9461 10.28 87.5901 10.464 87.9901 10.832C88.3901 11.2 88.5901 11.72 88.5901 12.392C88.5901 12.48 88.5781 12.64 88.5541 12.872C88.5381 13.096 88.5141 13.336 88.4821 13.592C88.4581 13.84 88.4341 14.076 88.4101 14.3C88.3941 14.524 88.3861 14.68 88.3861 14.768C88.3861 14.968 88.4221 15.112 88.4941 15.2C88.5661 15.28 88.6461 15.336 88.7341 15.368C88.8301 15.4 88.9141 15.424 88.9861 15.44C89.0581 15.456 89.0941 15.496 89.0941 15.56C89.0941 15.736 89.0701 15.916 89.0221 16.1C88.9741 16.284 88.8941 16.452 88.7821 16.604C88.6781 16.756 88.5301 16.88 88.3381 16.976C88.1541 17.072 87.9261 17.12 87.6541 17.12C87.2701 17.12 86.9821 17.028 86.7901 16.844C86.5981 16.66 86.4701 16.404 86.4061 16.076C86.2141 16.356 85.9621 16.6 85.6501 16.808C85.3461 17.016 84.9461 17.12 84.4501 17.12C84.2101 17.12 83.9821 17.092 83.7661 17.036C83.5581 16.98 83.3741 16.888 83.2141 16.76C83.0621 16.632 82.9381 16.468 82.8421 16.268C82.7541 16.06 82.7101 15.812 82.7101 15.524ZM86.4421 14.156C86.2341 14.156 86.0301 14.172 85.8301 14.204C85.6301 14.236 85.4501 14.288 85.2901 14.36C85.1381 14.424 85.0141 14.512 84.9181 14.624C84.8221 14.736 84.7741 14.872 84.7741 15.032C84.7741 15.216 84.8301 15.344 84.9421 15.416C85.0621 15.488 85.1901 15.524 85.3261 15.524C85.4541 15.524 85.5821 15.496 85.7101 15.44C85.8381 15.384 85.9501 15.3 86.0461 15.188C86.1501 15.068 86.2381 14.924 86.3101 14.756C86.3821 14.588 86.4261 14.388 86.4421 14.156ZM91.2238 17.108C90.7278 17.108 90.3718 16.976 90.1558 16.712C89.9398 16.448 89.8318 16.012 89.8318 15.404C89.8318 15.308 89.8358 15.188 89.8438 15.044C89.8598 14.9 89.8758 14.716 89.8918 14.492C89.9158 14.26 89.9438 13.976 89.9758 13.64C90.0078 13.304 90.0398 12.896 90.0718 12.416C90.1118 11.936 90.1518 11.372 90.1918 10.724C90.2398 10.076 90.2878 9.324 90.3358 8.468C90.3438 8.292 90.3638 8.188 90.3958 8.156C90.4198 8.132 90.4838 8.12 90.5878 8.12H91.0558C91.2958 8.12 91.4958 8.148 91.6558 8.204C91.8158 8.26 91.9438 8.336 92.0398 8.432C92.1358 8.528 92.2038 8.64 92.2438 8.768C92.2838 8.888 92.3038 9.016 92.3038 9.152C92.3038 9.312 92.2918 9.544 92.2678 9.848C92.2518 10.144 92.2278 10.48 92.1958 10.856C92.1638 11.232 92.1318 11.624 92.0998 12.032C92.0678 12.44 92.0358 12.832 92.0038 13.208C91.9718 13.576 91.9438 13.908 91.9198 14.204C91.9038 14.5 91.8958 14.724 91.8958 14.876C91.8958 15.084 91.9318 15.232 92.0038 15.32C92.0838 15.408 92.1678 15.472 92.2558 15.512C92.3438 15.544 92.4238 15.568 92.4958 15.584C92.5758 15.592 92.6158 15.616 92.6158 15.656C92.6158 15.832 92.5958 16.008 92.5558 16.184C92.5158 16.352 92.4438 16.508 92.3398 16.652C92.2358 16.788 92.0918 16.9 91.9078 16.988C91.7318 17.068 91.5038 17.108 91.2238 17.108Z" fill="#96A0B0"/>
</svg>
