<svg width="154" height="154" viewBox="0 0 154 154" fill="none" xmlns="http://www.w3.org/2000/svg">
<g clip-path="url(#clip0_31_330)">
<g opacity="0.5">
<path d="M47.0888 28.5842C71.0793 13.85 101.47 30.7173 99.5385 59.2864C99.4992 60.7236 99.1686 62.2967 98.9157 63.6562C80.213 61.2035 58.7499 67.6647 51.7342 82.2874C45.4764 95.4924 57.8844 104.605 69.869 100.258C84.1069 95.0377 96.6955 84.3788 102.545 70.2999C114.198 72.8476 124.004 79.8036 126.02 92.8751C129.374 114.9 106.896 134.782 86.3089 135.514C84.1531 135.455 83.9191 138.757 86.0749 138.816C113.421 140.785 138.833 110.844 129.421 84.1945C125.676 73.88 115.928 67.4294 104.353 64.6681C108.145 49.5977 101.022 33.9415 89.197 24.5574C75.4689 13.7547 58.4353 16.0217 44.8177 24.855C42.6223 26.2332 44.9718 29.7491 47.0888 28.5842ZM79.2337 89.1514C74.1053 92.607 67.6755 96.3147 61.208 96.138C54.9546 96.0392 55.8307 87.649 56.8614 84.1535C58.2028 79.8034 62.593 77.0467 66.4585 75.0668C74.636 70.5442 86.3483 68.2749 97.1076 69.2884C93.4345 77.3862 86.4213 84.0261 79.2337 89.1514Z" fill="#1A73E5"/>
<path d="M32.2498 32.1342C38.2311 34.3112 44.5816 36.1388 50.8935 36.7427C53.4762 36.957 53.5747 33.3641 51.0691 32.9359C46.0585 32.0799 41.223 30.078 36.6011 28.1539C37.8254 25.4549 39.1275 22.542 40.5655 19.9205C41.7703 17.9398 44.4319 15.2797 43.9276 12.6771C43.6757 11.3754 42.6076 10.9866 41.3839 11.0254C38.4317 11.1605 36.7989 15.6465 35.5164 17.8408C33.4759 21.4531 31.941 25.0066 30.5414 28.8521C30.0751 30.1331 30.9681 31.6677 32.2498 32.1342Z" fill="#1A73E5"/>
</g>
</g>
<defs>
<clipPath id="clip0_31_330">
<rect width="120" height="120" fill="white" transform="translate(112.763 153.805) rotate(-160)"/>
</clipPath>
</defs>
</svg>
