<svg width="48" height="48" viewBox="0 0 48 48" fill="none" xmlns="http://www.w3.org/2000/svg">
<g clip-path="url(#clip0_43_980)">
<path d="M12.3636 19.1914C12.3636 19.6382 12.0015 20 11.5547 20C11.1083 20 10.7461 19.6382 10.7461 19.1914C10.7461 18.7446 11.1083 18.3828 11.5547 18.3828C12.0015 18.3828 12.3636 18.7446 12.3636 19.1914Z" fill="#1A73E5"/>
<path d="M14.6005 21.6157C14.6005 22.0625 14.2383 22.4243 13.7915 22.4243C13.3451 22.4243 12.9829 22.0625 12.9829 21.6157C12.9829 21.1689 13.3451 20.8071 13.7915 20.8071C14.2383 20.8071 14.6005 21.1689 14.6005 21.6157Z" fill="#1A73E5"/>
<path d="M16.9493 19.2668C16.9493 19.7136 16.5872 20.0754 16.1404 20.0754C15.694 20.0754 15.3318 19.7136 15.3318 19.2668C15.3318 18.8204 15.694 18.4583 16.1404 18.4583C16.5872 18.4583 16.9493 18.8204 16.9493 19.2668Z" fill="#1A73E5"/>
<path d="M22.6344 21.6157C22.6344 22.0625 22.2722 22.4243 21.8258 22.4243C21.379 22.4243 21.0168 22.0625 21.0168 21.6157C21.0168 21.1689 21.379 20.8071 21.8258 20.8071C22.2722 20.8071 22.6344 21.1689 22.6344 21.6157Z" fill="#1A73E5"/>
<path d="M13.7663 15.1451C13.4931 15.1451 13.2214 15.0594 12.9892 14.8906C12.5783 14.5922 12.3765 14.0959 12.4626 13.5953L12.504 13.3544L12.3286 13.1841C11.9649 12.8296 11.8367 12.3092 11.9935 11.8262C12.1506 11.3435 12.56 10.9982 13.0628 10.9249L13.3045 10.8898L13.4129 10.6704C13.6374 10.2152 14.0922 9.9325 14.6002 9.93213C15.1081 9.93213 15.5633 10.2152 15.7878 10.6704L15.8962 10.8898L16.1382 10.9249C16.6407 10.9982 17.0501 11.3435 17.2072 11.8262C17.364 12.3092 17.2358 12.8292 16.8721 13.1837L16.6971 13.3544L16.7381 13.5953C16.8242 14.0959 16.622 14.5922 16.2115 14.891C15.8006 15.1891 15.2663 15.2279 14.8166 14.9917L14.6002 14.8778L14.3837 14.9917C14.1885 15.0942 13.9769 15.1451 13.7663 15.1451ZM14.6002 13.4613C14.8118 13.4613 15.0239 13.5122 15.2165 13.6136L15.3249 13.6704L15.3044 13.5499C15.2304 13.12 15.3729 12.6816 15.6852 12.3773L15.7728 12.292L15.6516 12.2744C15.2202 12.2118 14.8474 11.9412 14.6544 11.55L14.6002 11.4406L14.546 11.55C14.3533 11.9412 13.9805 12.2118 13.5491 12.2744L13.4279 12.292L13.5154 12.3773C13.8278 12.682 13.9699 13.12 13.8963 13.5499L13.8758 13.6704L13.9838 13.6133C14.1772 13.5122 14.3889 13.4613 14.6002 13.4613ZM15.9152 10.9282H15.9163H15.9152Z" fill="#1A73E5"/>
<path d="M47.7634 22.348C47.6063 21.7716 47.376 21.2296 47.0827 20.7297L47.7393 13.5952C47.8074 12.854 47.4298 12.1443 46.7772 11.7869L45.7116 11.2028C45.1582 10.8995 44.495 10.8951 43.938 11.1918C43.3806 11.488 43.0133 12.0403 42.9555 12.6687L42.4131 18.5596C39.1154 21.7156 34.7761 24.3706 29.9352 26.2211C31.347 24.1278 32.1057 21.6639 32.1057 19.0829C32.1057 16.6454 31.418 14.2742 30.1165 12.2259C28.8498 10.233 27.0627 8.62976 24.9478 7.58935C24.5995 7.41797 24.178 7.56152 24.007 7.90979C23.8356 8.25806 23.9788 8.67956 24.3274 8.85058C28.2583 10.7845 30.7002 14.7052 30.7002 19.0829C30.7002 22.1078 29.5291 24.9525 27.4021 27.1003C27.1311 27.1853 26.859 27.2688 26.5855 27.3486C22.2503 28.6142 17.8689 29.1786 13.771 29.0467C10.1514 27.0326 7.908 23.228 7.908 19.0829C7.908 12.7991 13.0203 7.68713 19.3037 7.68713C19.9984 7.68713 20.6939 7.74975 21.371 7.8739C21.7522 7.94348 22.1192 7.69079 22.1891 7.3092C22.2591 6.92725 22.006 6.56103 21.6241 6.49109C20.8638 6.35193 20.083 6.28125 19.3041 6.28125C12.245 6.28125 6.50212 12.0242 6.50212 19.0832C6.50212 22.8911 8.18742 26.4433 11.0248 28.849C9.41899 28.6662 7.87248 28.3689 6.4069 27.9562C6.40031 27.954 6.39409 27.9521 6.38749 27.9503C5.60197 27.7284 4.83842 27.4746 4.10307 27.1868C3.17766 26.8242 2.11748 27.2117 1.63701 28.088L0.245408 30.6277C-0.136916 31.3253 -0.0680684 32.1826 0.420823 32.8118C3.38493 36.6262 7.71574 39.3823 12.9441 40.7827C15.404 41.4415 17.9627 41.7704 20.5595 41.7704C23.565 41.7704 26.6214 41.3298 29.6313 40.4509C37.0968 38.2712 43.4506 33.5423 47.0629 27.4772C47.9912 25.9182 48.2403 24.0967 47.7634 22.348V22.348ZM44.3551 12.7976C44.376 12.5738 44.5316 12.468 44.5979 12.4329C44.6638 12.3977 44.8389 12.3274 45.0359 12.4354L46.1019 13.0195C46.2627 13.1078 46.3561 13.2832 46.3393 13.4659L45.8134 19.1785C45.438 18.8419 45.022 18.5445 44.5675 18.2955L44.2735 18.1344C44.1464 18.0648 44.0127 18.0172 43.8772 17.9894L44.3551 12.7976ZM1.53081 31.9493C1.38615 31.7626 1.36528 31.5091 1.47844 31.3033L2.87004 28.7637C2.97588 28.5699 3.17693 28.4568 3.3842 28.4568C3.45341 28.4568 3.52299 28.4692 3.59038 28.4956C4.10161 28.6959 4.62639 28.879 5.16069 29.0486L2.77812 33.3962C2.3394 32.9348 1.92229 32.4529 1.53081 31.9493ZM45.8551 26.7579C42.4226 32.521 36.3655 37.0202 29.2368 39.1018C19.7304 41.8773 9.96354 39.9803 3.82255 34.4154L6.5446 29.4485C12.5889 31.0232 19.8556 30.7778 26.9795 28.6977C32.7397 27.0161 38.0299 24.2219 42.0908 20.7433C41.978 21.0557 41.836 21.3585 41.6638 21.6475C39.5237 25.2411 36.3439 28.3843 32.4679 30.7375C32.1361 30.9389 32.0303 31.3711 32.2317 31.7032C32.3643 31.9208 32.5957 32.0412 32.8334 32.0412C32.9575 32.0412 33.0835 32.0083 33.1974 31.9391C37.2689 29.4671 40.6143 26.157 42.8716 22.3671C43.3997 21.4801 43.7113 20.4895 43.7871 19.4711L43.8919 19.5282C44.658 19.9482 45.2901 20.5382 45.7508 21.2483C45.7628 21.2695 45.776 21.2897 45.7899 21.3091C46.0606 21.7394 46.2693 22.2118 46.407 22.7175C46.7827 24.0948 46.5864 25.5297 45.8551 26.7579V26.7579Z" fill="#1A73E5"/>
<path d="M29.6868 32.2327C28.2048 32.9332 26.6433 33.5247 25.0459 33.9912C18.9177 35.7805 12.4947 35.6534 6.95981 33.6338C6.59543 33.5005 6.19187 33.6883 6.05857 34.0531C5.92563 34.4178 6.1135 34.8214 6.47788 34.9543C9.57565 36.0848 12.9342 36.6517 16.3667 36.6517C19.3766 36.6517 22.4432 36.2156 25.4399 35.3407C27.108 34.8536 28.7391 34.2355 30.2874 33.5038C30.6386 33.3379 30.7884 32.9189 30.6225 32.5677C30.4566 32.2165 30.0377 32.0668 29.6868 32.2327V32.2327Z" fill="#1A73E5"/>
</g>
<defs>
<clipPath id="clip0_43_980">
<rect width="48" height="48" fill="white"/>
</clipPath>
</defs>
</svg>
