<svg width="48" height="48" viewBox="0 0 48 48" fill="none" xmlns="http://www.w3.org/2000/svg">
<g clip-path="url(#clip0_43_971)">
<path d="M9.99817 33.7029C9.60339 33.7029 9.26282 33.4355 9.1687 33.0521L8.99072 32.3241C8.76843 31.4163 8.15613 30.7347 7.17102 30.299C7.1344 30.2828 7.09888 30.2634 7.06519 30.2407C6.81873 30.0767 6.67188 29.802 6.67188 29.5057C6.67188 29.2098 6.81873 28.9352 7.06519 28.7708C7.09888 28.7484 7.1344 28.729 7.17102 28.7125C8.15613 28.2767 8.76843 27.5956 8.99072 26.6874L9.1687 25.9594C9.26282 25.5763 9.60339 25.3086 9.99817 25.3086C10.3926 25.309 10.7335 25.5763 10.8273 25.9594L11.0056 26.6874C11.2275 27.5956 11.8398 28.2767 12.825 28.7125C12.8619 28.729 12.8975 28.7484 12.9308 28.7708C13.1772 28.9348 13.3245 29.2098 13.3245 29.5057C13.3245 29.802 13.1772 30.0767 12.9308 30.2407C12.8975 30.2631 12.8619 30.2828 12.825 30.299C11.8398 30.7347 11.2275 31.4163 11.0056 32.3241L10.8273 33.0521C10.7335 33.4352 10.3929 33.7029 9.99817 33.7029ZM8.63733 29.5057C9.22583 29.9148 9.68359 30.4246 9.99817 31.0215C10.3124 30.4246 10.7705 29.9144 11.359 29.5057C10.7705 29.097 10.3124 28.5869 9.99817 27.9904C9.68359 28.5869 9.22546 29.097 8.63733 29.5057Z" fill="#1A73E5"/>
<path d="M40.6014 10.7377H40.6011C40.2067 10.7377 39.8657 10.47 39.772 10.0869L39.594 9.35925C39.3717 8.45105 38.7598 7.7699 37.7747 7.33411C37.7377 7.31763 37.7021 7.29822 37.6685 7.27588C37.4224 7.11145 37.2751 6.83679 37.2751 6.54053C37.2751 6.24426 37.4224 5.9696 37.6688 5.80554C37.7025 5.7832 37.7377 5.76379 37.7747 5.74768C38.7598 5.31152 39.3717 4.63037 39.594 3.72253L39.7723 2.99451C39.8657 2.61145 40.2067 2.34375 40.6011 2.34375H40.6014C40.9958 2.34375 41.3368 2.61108 41.4305 2.99414C41.4305 2.99451 41.4309 2.99451 41.4309 2.99451L41.6089 3.72253C41.8312 4.63037 42.4435 5.31189 43.4282 5.74768C43.4652 5.76379 43.5007 5.7832 43.5344 5.80591C43.7805 5.96997 43.9277 6.24463 43.9277 6.54053C43.9277 6.83643 43.7809 7.11145 43.5348 7.27551C43.5011 7.29822 43.4652 7.31763 43.4282 7.33411C42.4435 7.7699 41.8312 8.45142 41.6089 9.35925L41.4309 10.0869C41.3368 10.4703 40.9958 10.7377 40.6014 10.7377ZM39.2406 6.54053C39.8291 6.94958 40.2869 7.45935 40.6014 8.05627C40.916 7.45935 41.3741 6.94922 41.9623 6.54053C41.3738 6.13184 40.916 5.62207 40.6014 5.02515C40.2869 5.62207 39.8291 6.1322 39.2406 6.54053ZM40.0587 3.33032C40.0587 3.33105 40.0587 3.33142 40.0591 3.33179L40.0587 3.33032Z" fill="#1A73E5"/>
<path d="M48 30.2552V23.035C48 21.546 47.7202 20.0969 47.1683 18.7273C46.7626 17.7194 46.6897 16.6571 46.9585 15.6548L47.4979 13.6406C47.6917 12.9188 47.4913 12.1725 46.9633 11.644C46.4348 11.1159 45.6885 10.9156 44.9667 11.1093L41.985 11.908C41.1658 12.1278 40.3224 12.13 39.546 11.915C38.5463 11.6381 37.5088 11.4979 36.4629 11.4979H35.5433C34.645 9.91293 33.4102 8.50851 31.9471 7.41574C31.6348 7.1821 31.1924 7.24618 30.9587 7.55893C30.7251 7.8713 30.7896 8.31405 31.1019 8.54733C34.0327 10.7369 35.7975 14.2093 35.8224 17.8363C35.844 20.9751 34.6381 23.93 32.4269 26.1566C30.2157 28.3831 27.2695 29.6092 24.1318 29.6092C22.9702 29.6092 21.8298 29.4408 20.7327 29.1079C24.6248 26.733 27.0135 22.5113 27.0135 17.9187C27.0135 13.3256 24.6251 9.1036 20.733 6.72909C21.8778 6.38156 23.0702 6.2131 24.2831 6.22848C25.778 6.24752 27.2333 6.54818 28.608 7.12277C28.9684 7.27365 29.3818 7.10336 29.5323 6.74337C29.6825 6.38339 29.5126 5.96994 29.153 5.81942C27.6101 5.17489 25.9775 4.83725 24.3007 4.81601C22.6696 4.7955 21.0736 5.07126 19.5586 5.63559C19.1528 5.78683 18.8826 6.14792 18.8533 6.57858C18.8243 7.00888 19.043 7.40292 19.4242 7.60727C21.1805 8.54843 22.6289 9.89608 23.6814 11.4979H11.5371C10.5088 11.4979 9.48853 11.6338 8.50452 11.9011C7.73071 12.1117 6.89246 12.108 6.08093 11.8905L3.16516 11.1093C2.44336 10.916 1.69702 11.1159 1.16895 11.644C0.640503 12.1725 0.440552 12.9188 0.633911 13.6406L1.13269 15.502C1.39746 16.4912 1.3158 17.5755 0.902344 18.5562C0.303589 19.9757 0 21.4826 0 23.035C0 23.425 0.31604 23.7411 0.706421 23.7411C1.09644 23.7411 1.41248 23.425 1.41248 23.035C1.41248 21.6723 1.67871 20.3503 2.20386 19.1052C2.73926 17.837 2.84326 16.4271 2.49719 15.1366L1.99841 13.2747C1.91016 12.9459 2.0874 12.7236 2.1676 12.643C2.2478 12.5628 2.47009 12.3856 2.79968 12.4738L5.71545 13.255C6.76831 13.5373 7.86108 13.5402 8.87549 13.2645C9.73865 13.0298 10.634 12.9107 11.5371 12.9107H24.4761C25.2045 14.4481 25.6007 16.1528 25.6007 17.9187C25.6007 22.237 23.2339 26.1881 19.4242 28.2297C19.0485 28.4311 18.824 28.8361 18.8529 29.2613C18.8818 29.6898 19.1492 30.0487 19.5509 30.1985C21.0146 30.7448 22.556 31.0221 24.1318 31.0221C27.6489 31.0221 30.951 29.6477 33.4292 27.1519C35.9077 24.6566 37.259 21.3446 37.2349 17.8264C37.2235 16.1433 36.8793 14.4638 36.234 12.9104H36.4629C37.3813 12.9104 38.2917 13.0338 39.1688 13.2766C40.188 13.5589 41.2881 13.5575 42.3505 13.2725L45.3325 12.4738C45.6614 12.3856 45.884 12.5628 45.9642 12.643C46.0444 12.7232 46.2217 12.9459 46.1334 13.2747L45.594 15.2893C45.2454 16.5893 45.3365 17.9608 45.858 19.255C46.3418 20.4561 46.5875 21.728 46.5875 23.035V30.2552C46.5875 31.6095 46.3242 32.9242 45.8057 34.1623C45.2769 35.4246 45.175 36.8265 45.5189 38.1097L46.0291 40.0129C46.1169 40.3421 45.9397 40.5644 45.8595 40.6446C45.7793 40.7248 45.5566 40.9021 45.2278 40.8142L42.3029 40.0301C41.2474 39.7474 40.1525 39.7448 39.1366 40.0224C38.2698 40.2594 37.37 40.3798 36.4629 40.3798H21.991C21.6006 40.3798 21.2845 40.6959 21.2845 41.0859C21.2845 41.4759 21.6006 41.7923 21.991 41.7923H36.4629C37.4956 41.7923 38.5206 41.6554 39.509 41.3851C40.2836 41.1734 41.1233 41.1767 41.937 41.3946L44.8619 42.1783C45.0432 42.227 45.226 42.2508 45.4065 42.2508C45.9448 42.2508 46.4626 42.0395 46.8585 41.6436C47.387 41.1152 47.5869 40.3689 47.3936 39.6471L46.8834 37.7442C46.6201 36.7613 46.7003 35.6832 47.1086 34.708C47.7001 33.2962 48 31.7981 48 30.2552V30.2552Z" fill="#1A73E5"/>
<path d="M20.1453 38.458C20.1119 38.4357 20.0764 38.4163 20.0394 38.3998C18.8481 37.8728 17.3247 36.8218 16.8322 34.8094L16.5425 33.6266C16.4385 33.2018 16.0609 32.9055 15.6237 32.9055C15.1868 32.9055 14.8088 33.2018 14.7048 33.6266L14.4155 34.8094C13.923 36.8221 12.3992 37.8728 11.2079 38.3998C11.1713 38.4163 11.1357 38.4357 11.1021 38.458C10.8248 38.6429 10.6593 38.952 10.6593 39.2853C10.6593 39.6185 10.8248 39.9276 11.1021 40.1125C11.1357 40.1349 11.1713 40.1543 11.2083 40.1708C11.3485 40.2327 11.4932 40.3022 11.6404 40.3795H11.5371C10.6458 40.3795 9.76062 40.2634 8.90735 40.0342C7.89624 39.7632 6.80933 39.7676 5.76343 40.0481L2.90442 40.8138C2.57556 40.9017 2.35291 40.7249 2.27271 40.6447C2.1925 40.5645 2.01489 40.3422 2.10315 40.0129L2.55762 38.3174C2.91101 36.9983 2.79822 35.5609 2.23975 34.2697C1.69116 33.0007 1.41284 31.6501 1.41284 30.2552V26.1383C1.41284 25.7479 1.0968 25.4319 0.706421 25.4319C0.316406 25.4319 0 25.7483 0 26.1383V30.2552C0 31.8442 0.317505 33.3834 0.942993 34.8303C1.37549 35.8304 1.46411 36.939 1.19312 37.9515L0.738647 39.6471C0.545288 40.3689 0.745239 41.1152 1.27368 41.6437C1.66919 42.0392 2.18738 42.2509 2.72571 42.2509C2.90588 42.2509 3.08862 42.2271 3.2699 42.1783L6.12891 41.4126C6.9353 41.1965 7.76917 41.1918 8.54114 41.3987C9.51379 41.6598 10.5216 41.7924 11.5371 41.7924H13.4264C13.8615 42.3153 14.22 42.9624 14.4152 43.7611L14.7048 44.944C14.8088 45.3688 15.1868 45.665 15.6237 45.665C16.0609 45.665 16.4385 45.3688 16.5425 44.944L16.8322 43.7611C17.3247 41.7484 18.8481 40.6978 20.0394 40.1708C20.0764 40.1543 20.1119 40.1349 20.1453 40.1125C20.4229 39.9276 20.5884 39.6185 20.5884 39.2853C20.5884 38.952 20.4229 38.6429 20.1453 38.458V38.458ZM15.6237 42.8643C15.3439 42.0436 14.9073 41.3086 14.328 40.6707C14.2928 40.6227 14.2522 40.5787 14.2064 40.5406C13.7476 40.0627 13.2063 39.642 12.5845 39.2853C14.0742 38.4309 15.1106 37.2122 15.6237 35.7067C16.1371 37.2118 17.1735 38.4313 18.6628 39.2853C17.1731 40.1396 16.1371 41.3588 15.6237 42.8643Z" fill="#1A73E5"/>
</g>
<defs>
<clipPath id="clip0_43_971">
<rect width="48" height="48" fill="white"/>
</clipPath>
</defs>
</svg>
