<svg width="48" height="48" viewBox="0 0 48 48" fill="none" xmlns="http://www.w3.org/2000/svg">
<g clip-path="url(#clip0_43_992)">
<path d="M20.4221 24.6065C20.1131 24.6065 19.8402 24.4043 19.7501 24.1084L17.6159 17.0977H11.2233C10.8351 17.0977 10.5205 16.7831 10.5205 16.3949C10.5205 16.0071 10.8351 15.6925 11.2233 15.6925H18.1362C18.4457 15.6925 18.7185 15.8947 18.8086 16.1906L20.4221 21.4915L22.7791 13.7498C22.8688 13.4539 23.142 13.2517 23.4511 13.2517C23.7602 13.2517 24.033 13.4539 24.1231 13.7498L25.143 17.1002H31.3217C31.7095 17.1002 32.0241 17.4148 32.0241 17.803C32.0241 18.1908 31.7095 18.5054 31.3217 18.5054H24.6226C24.3135 18.5054 24.0403 18.3032 23.9506 18.0077L23.4511 16.3667L21.0941 24.1084C21.0044 24.4043 20.7316 24.6065 20.4221 24.6065V24.6065Z" fill="#1A73E5"/>
<path d="M46.4243 11.2573C46.2335 10.919 45.805 10.7996 45.467 10.9904C45.1293 11.1808 45.0096 11.6093 45.2004 11.9473C46.0482 13.4509 46.4982 15.1586 46.5012 16.8856C46.51 21.49 43.8641 26.6122 38.6379 32.1098C34.3829 36.5856 29.6082 40.0038 27.753 41.2654C27.4428 41.4767 27.0418 41.4767 26.7312 41.2654C25.0866 40.147 21.0887 37.2928 17.2167 33.4999H23.7715V36.3468C23.7715 37.2507 24.5069 37.986 25.4107 37.986H26.9411C27.8453 37.986 28.5806 37.2507 28.5806 36.3468V36.2875C28.6571 36.2985 28.7352 36.3062 28.8146 36.3062H30.345C31.2488 36.3062 31.9842 35.5708 31.9842 34.667V26.6492C31.9842 25.7454 31.2488 25.01 30.345 25.01H28.8146C28.7352 25.01 28.6571 25.0177 28.5806 25.0291V24.9694C28.5806 24.0656 27.8453 23.3302 26.9411 23.3302H25.4107C24.5069 23.3302 23.7715 24.0656 23.7715 24.9694V27.7471H21.5567C21.1685 27.7471 20.8539 28.0617 20.8539 28.4495C20.8539 28.8377 21.1685 29.1523 21.5567 29.1523H23.7715V32.0951H8.11928V29.1523H18.3791C18.7672 29.1523 19.0818 28.8377 19.0818 28.4495C19.0818 28.0617 18.7672 27.7471 18.3791 27.7471H12.1897C9.39223 23.8773 7.97682 20.2244 7.98304 16.886C7.9933 11.2932 12.5493 6.7489 18.1421 6.7489H18.1564C21.2465 6.75293 24.13 8.14087 26.0677 10.5564C26.3548 10.9146 26.7829 11.1196 27.2421 11.1196C27.7013 11.1196 28.1294 10.9142 28.4165 10.5564C30.3542 8.14087 33.2377 6.7533 36.3278 6.7489H36.3421C38.9389 6.7489 41.4138 7.73767 43.3133 9.53431C43.5949 9.80091 44.0399 9.78846 44.3065 9.50684C44.5731 9.22486 44.5606 8.78028 44.2786 8.51368C42.1173 6.46875 39.2996 5.34375 36.3421 5.34375C36.337 5.34375 36.3311 5.34375 36.3256 5.34375C32.8082 5.34851 29.5258 6.92798 27.3205 9.6775C27.2806 9.72694 27.2033 9.72694 27.1637 9.6775C24.9584 6.92835 21.6761 5.34888 18.1586 5.34375C18.1527 5.34375 18.148 5.34375 18.1421 5.34375C11.7763 5.34375 6.58961 10.5172 6.57789 16.8834C6.57167 20.2808 7.8816 23.9304 10.4736 27.7471H8.11928V24.969C8.11928 24.0652 7.38392 23.3299 6.48011 23.3299H4.94935C4.04554 23.3299 3.31019 24.0652 3.31019 24.969V25.0287C3.23365 25.0177 3.15564 25.01 3.07618 25.01H1.54541C0.641603 25.01 -0.09375 25.7454 -0.09375 26.6492V34.6667C-0.09375 35.5705 0.641603 36.3058 1.54541 36.3058H3.07618C3.15564 36.3058 3.23365 36.2981 3.31019 36.2872V36.3468C3.31019 37.2507 4.04554 37.986 4.94935 37.986H6.48011C7.38392 37.986 8.11928 37.2507 8.11928 36.3468V33.4999H15.2344C19.4803 37.8703 24.1216 41.19 25.941 42.4274C26.3361 42.6962 26.7891 42.8306 27.2417 42.8306C27.6947 42.8306 28.1477 42.6962 28.5429 42.4274C30.4358 41.1402 35.3075 37.652 39.6559 33.0777C45.1396 27.3095 47.9155 21.8606 47.9063 16.8831C47.9027 14.9154 47.39 12.9701 46.4243 11.2573V11.2573ZM28.8146 26.4152H30.3454C30.4743 26.4152 30.5794 26.5203 30.5794 26.6492V34.6667C30.5794 34.7959 30.4743 34.901 30.3454 34.901H28.8146C28.6857 34.901 28.5806 34.7959 28.5806 34.6667V26.6492C28.5806 26.5203 28.6857 26.4152 28.8146 26.4152V26.4152ZM25.1767 24.969C25.1767 24.8401 25.2814 24.735 25.4107 24.735H26.9411C27.0704 24.735 27.1755 24.8401 27.1755 24.969V36.3468C27.1755 36.4758 27.0704 36.5809 26.9411 36.5809H25.4107C25.2814 36.5809 25.1767 36.4758 25.1767 36.3468V24.969ZM6.71412 36.3468C6.71412 36.4761 6.60902 36.5812 6.48011 36.5812H4.94935C4.82044 36.5812 4.71534 36.4761 4.71534 36.3468V30.7918C4.71534 30.404 4.40076 30.0894 4.01258 30.0894C3.62476 30.0894 3.31019 30.404 3.31019 30.7918V34.6667C3.31019 34.7959 3.20508 34.901 3.07581 34.901H1.54541C1.41651 34.901 1.3114 34.7959 1.3114 34.6667V26.6492C1.3114 26.5203 1.41651 26.4152 1.54541 26.4152H3.07618C3.20508 26.4152 3.31019 26.5203 3.31019 26.6492V27.5124C3.31019 27.9005 3.62476 28.2148 4.01295 28.2148C4.40076 28.2148 4.71534 27.9005 4.71534 27.5124V24.969C4.71534 24.8401 4.82044 24.735 4.94971 24.735H6.48011C6.60902 24.735 6.71412 24.8401 6.71412 24.969V36.3468Z" fill="#1A73E5"/>
</g>
<defs>
<clipPath id="clip0_43_992">
<rect width="48" height="48" fill="white"/>
</clipPath>
</defs>
</svg>
