<svg width="85" height="18" viewBox="0 0 85 18" fill="none" xmlns="http://www.w3.org/2000/svg">
<path d="M14.9796 9.20217L16.3427 7.83905C16.4419 8.21011 16.5 8.59805 16.5 9.00005C16.5 11.4814 14.4814 13.5 12 13.5C11.598 13.5 11.2101 13.4419 10.839 13.3427L12.2021 11.9796C13.6926 11.878 14.8779 10.6926 14.9796 9.20217ZM23.9055 8.63573C23.8132 8.4698 22.5049 6.17723 19.9474 4.23436L18.8559 5.3258C20.7208 6.69698 21.9024 8.29617 22.3676 9.00117C21.4787 10.3547 17.9916 15 12 15C11.1015 15 10.266 14.8851 9.47981 14.7017L8.24738 15.9342C9.38044 16.2816 10.6258 16.5 12 16.5C19.8512 16.5 23.7437 9.65555 23.9055 9.36436C24.0315 9.13767 24.0315 8.86242 23.9055 8.63573ZM20.7803 1.2803L4.28025 17.7803C4.13381 17.9267 3.94181 18 3.75 18C3.55819 18 3.36619 17.9267 3.21975 17.7803C2.92669 17.4872 2.92669 17.0127 3.21975 16.7198L5.319 14.6205C1.92525 12.5717 0.200812 9.5558 0.0945 9.36436C-0.0315 9.13767 -0.0315 8.86223 0.0945 8.63555C0.256312 8.34455 4.14881 1.50005 12 1.50005C14.0301 1.50005 15.7884 1.96317 17.2916 2.64792L19.7197 0.219797C20.0128 -0.0732656 20.4874 -0.0732656 20.7803 0.219797C21.0731 0.512859 21.0733 0.987422 20.7803 1.2803ZM6.43744 13.5021L8.33625 11.6033C7.81181 10.8675 7.5 9.97036 7.5 9.00005C7.5 6.51867 9.51863 4.50005 12 4.50005C12.9703 4.50005 13.8675 4.81186 14.6033 5.33611L16.1387 3.80067C14.9256 3.31486 13.5471 3.00005 12 3.00005C6.00844 3.00005 2.52131 7.64536 1.63256 8.99892C2.19694 9.8543 3.81919 12.0195 6.43744 13.5021ZM9.42506 10.5143L13.5142 6.42511C13.0682 6.16167 12.5546 6.00005 12 6.00005C10.3459 6.00005 9 7.34592 9 9.00005C9 9.55467 9.16162 10.0682 9.42506 10.5143Z" fill="#96A0B0"/>
<path d="M31.7969 4.3399C32.0703 4.3399 32.3164 4.38678 32.5352 4.48053C32.7617 4.56647 32.9688 4.66412 33.1562 4.7735C33.3516 4.88287 33.5352 4.98444 33.707 5.07819C33.8789 5.16412 34.0547 5.20709 34.2344 5.20709C34.375 5.19928 34.5352 5.17975 34.7148 5.1485C34.8711 5.11725 35.0508 5.07037 35.2539 5.00787C35.4648 4.93756 35.6992 4.836 35.957 4.70319C35.6992 4.95319 35.4883 5.16412 35.3242 5.336C35.168 5.50006 35.0469 5.63678 34.9609 5.74615C34.8594 5.87115 34.7852 5.96881 34.7383 6.03912C34.6914 6.12506 34.6211 6.25397 34.5273 6.42584C34.4414 6.58209 34.3242 6.79303 34.1758 7.05865C34.0273 7.31647 33.8398 7.65631 33.6133 8.07819C33.6133 7.53912 33.5586 7.12115 33.4492 6.82428C33.3477 6.5274 33.2344 6.30084 33.1094 6.14459C32.9609 5.9649 32.793 5.85162 32.6055 5.80475C32.4336 5.78131 32.2617 5.81256 32.0898 5.8985C31.918 5.97662 31.7461 6.09381 31.5742 6.25006C31.4102 6.40631 31.25 6.59381 31.0938 6.81256C30.9453 7.0235 30.8086 7.24615 30.6836 7.48053C30.5664 7.7149 30.4688 7.95319 30.3906 8.19537C30.3125 8.42975 30.2617 8.6485 30.2383 8.85162C30.2148 9.03131 30.2109 9.24225 30.2266 9.48444C30.2422 9.71881 30.2773 9.961 30.332 10.211C30.3867 10.4532 30.457 10.6915 30.543 10.9258C30.6289 11.1602 30.7344 11.3712 30.8594 11.5587C30.9922 11.7383 31.1406 11.8868 31.3047 12.004C31.4688 12.1133 31.6562 12.1641 31.8672 12.1563C32.1016 12.1407 32.332 12.0704 32.5586 11.9454C32.7539 11.8438 32.9531 11.6876 33.1562 11.4766C33.3594 11.2579 33.5352 10.9493 33.6836 10.5508L35.418 10.8672C34.918 11.4766 34.4297 11.9337 33.9531 12.2383C33.4844 12.543 33.0625 12.7579 32.6875 12.8829C32.25 13.0235 31.8359 13.0899 31.4453 13.0821C30.9531 13.0274 30.4922 12.879 30.0625 12.6368C29.6328 12.3946 29.2617 12.1016 28.9492 11.7579C28.6445 11.4063 28.4062 11.0235 28.2344 10.6094C28.0625 10.1954 27.9883 9.78912 28.0117 9.39069C28.0273 9.12506 28.082 8.81647 28.1758 8.4649C28.2695 8.10553 28.3945 7.73834 28.5508 7.36334C28.7148 6.98834 28.9102 6.62115 29.1367 6.26178C29.3633 5.9024 29.6133 5.58209 29.8867 5.30084C30.1602 5.01178 30.457 4.78131 30.7773 4.60944C31.1055 4.42975 31.4453 4.3399 31.7969 4.3399ZM38.2188 11.1133C38.4375 11.1133 38.6406 11.0899 38.8281 11.043C38.9844 11.004 39.1328 10.9415 39.2734 10.8555C39.4219 10.7618 39.5195 10.6251 39.5664 10.4454C39.7227 10.4766 39.8555 10.504 39.9648 10.5274C40.0742 10.543 40.168 10.5587 40.2461 10.5743C40.332 10.5977 40.4062 10.6133 40.4688 10.6212C40.5312 10.6368 40.6055 10.6524 40.6914 10.668C40.7695 10.6837 40.8633 10.7032 40.9727 10.7266C41.0898 10.7422 41.2266 10.7657 41.3828 10.7969C41.2656 10.7813 41.1445 10.793 41.0195 10.8321C40.9023 10.8712 40.7891 10.9141 40.6797 10.961C40.5547 11.0157 40.4375 11.0821 40.3281 11.1602C40.2578 11.2071 40.1758 11.2774 40.082 11.3712C39.9961 11.4649 39.8711 11.5547 39.707 11.6407C39.543 11.7266 39.3242 11.8008 39.0508 11.8633C38.7852 11.918 38.4414 11.9376 38.0195 11.9219C37.5117 11.9063 37.0859 11.8165 36.7422 11.6524C36.3984 11.4805 36.1211 11.2735 35.9102 11.0313C35.6992 10.7813 35.5469 10.5118 35.4531 10.2227C35.3594 9.93365 35.3086 9.66412 35.3008 9.41412C35.293 9.16412 35.3672 8.9024 35.5234 8.62897C35.6797 8.35553 35.8984 8.10553 36.1797 7.87897C36.4688 7.6524 36.8164 7.46881 37.2227 7.32819C37.6289 7.17975 38.0742 7.10553 38.5586 7.10553C38.8398 7.10553 39.0977 7.14069 39.332 7.211C39.5742 7.2735 39.793 7.35944 39.9883 7.46881C40.1914 7.57819 40.3672 7.70319 40.5156 7.84381C40.6641 7.97662 40.7891 8.11334 40.8906 8.25397C40.9922 8.4024 41.0781 8.55865 41.1484 8.72272C41.2109 8.86334 41.2617 9.0235 41.3008 9.20319C41.3398 9.38287 41.3516 9.56647 41.3359 9.75397C40.7422 9.76959 40.2617 9.78131 39.8945 9.78912C39.5352 9.79694 39.2539 9.80084 39.0508 9.80084H38.5234H38.125C37.9844 9.80084 37.8008 9.80475 37.5742 9.81256C37.3477 9.82037 37.0703 9.83209 36.7422 9.84772C36.7812 10.1602 36.8789 10.4024 37.0352 10.5743C37.1992 10.7383 37.3711 10.8633 37.5508 10.9493C37.7539 11.043 37.9766 11.0977 38.2188 11.1133ZM37.1641 9.00397C37.4141 9.01959 37.6211 9.03131 37.7852 9.03912C37.957 9.04694 38.0977 9.05475 38.207 9.06256C38.3242 9.07037 38.418 9.07428 38.4883 9.07428H38.7812C38.9766 9.07428 39.3398 9.06256 39.8711 9.03912C39.8477 8.69537 39.7734 8.43365 39.6484 8.25397C39.5312 8.07428 39.4062 7.94147 39.2734 7.85553C39.1172 7.76178 38.9453 7.70709 38.7578 7.69147C38.25 7.69928 37.8711 7.80475 37.6211 8.00787C37.3789 8.211 37.2266 8.54303 37.1641 9.00397ZM42.168 11.711C42.2227 11.4532 42.2617 11.2266 42.2852 11.0313C42.3164 10.8282 42.3398 10.6602 42.3555 10.5274C42.3711 10.3712 42.3789 10.2383 42.3789 10.129C42.3711 9.99615 42.3633 9.8399 42.3555 9.66022C42.3555 9.47272 42.3477 9.28912 42.332 9.10944C42.3242 8.92194 42.3125 8.75787 42.2969 8.61725C42.2812 8.46881 42.2617 8.36334 42.2383 8.30084C42.207 8.23834 42.1641 8.17194 42.1094 8.10162C42 7.96881 41.8398 7.8399 41.6289 7.7149C41.8086 7.67584 41.9609 7.64459 42.0859 7.62115C42.2188 7.5899 42.3281 7.56256 42.4141 7.53912C42.5078 7.50787 42.5898 7.48053 42.6602 7.45709C42.7227 7.43365 42.7969 7.41022 42.8828 7.38678C42.9531 7.37115 43.0391 7.35162 43.1406 7.32819C43.2422 7.30475 43.3594 7.2774 43.4922 7.24615L43.457 8.31256C43.707 8.01569 43.9609 7.79303 44.2188 7.64459C44.4766 7.49615 44.7188 7.39069 44.9453 7.32819C45.2031 7.25006 45.457 7.211 45.707 7.211C46.0195 7.22662 46.3086 7.2774 46.5742 7.36334C46.8477 7.44928 47.082 7.55084 47.2773 7.66803C47.4805 7.7774 47.6445 7.89459 47.7695 8.01959C47.8945 8.14459 47.9688 8.25397 47.9922 8.34772C48.0859 8.6524 48.1094 8.93365 48.0625 9.19147C48.0156 9.44147 47.9531 9.68756 47.875 9.92975C47.8047 10.1641 47.7422 10.3985 47.6875 10.6329C47.6406 10.8672 47.6602 11.1212 47.7461 11.3946C47.7773 11.4649 47.8086 11.5352 47.8398 11.6055C47.8711 11.668 47.9102 11.7305 47.957 11.793C48.0039 11.8555 48.0586 11.9063 48.1211 11.9454C48.0352 11.9376 47.9492 11.9337 47.8633 11.9337C47.7773 11.9258 47.6992 11.918 47.6289 11.9102C47.543 11.9024 47.4648 11.8946 47.3945 11.8868C47.3164 11.879 47.2109 11.8751 47.0781 11.8751C46.8516 11.8751 46.5 11.8868 46.0234 11.9102C46.0938 11.7462 46.1484 11.6094 46.1875 11.5001C46.2344 11.3829 46.2734 11.2891 46.3047 11.2188C46.3359 11.1329 46.3594 11.0665 46.375 11.0196C46.4688 10.793 46.5234 10.5352 46.5391 10.2462C46.5625 9.95709 46.543 9.66412 46.4805 9.36725C46.457 9.26569 46.418 9.14459 46.3633 9.00397C46.3086 8.86334 46.2344 8.72662 46.1406 8.59381C46.0547 8.461 45.9492 8.34772 45.8242 8.25397C45.707 8.16022 45.5703 8.10553 45.4141 8.0899C45.2578 8.07428 45.082 8.11334 44.8867 8.20709C44.6992 8.30084 44.4961 8.47272 44.2773 8.72272C44.1133 8.93365 43.9844 9.19147 43.8906 9.49615C43.8047 9.75397 43.7461 10.0782 43.7148 10.4688C43.6836 10.8516 43.7305 11.3008 43.8555 11.8165C43.7461 11.8008 43.6445 11.793 43.5508 11.793C43.457 11.7852 43.3789 11.7774 43.3164 11.7696C43.2383 11.7618 43.168 11.754 43.1055 11.7462C43.0352 11.7462 42.957 11.7422 42.8711 11.7344C42.793 11.7344 42.6953 11.7344 42.5781 11.7344C42.4609 11.7266 42.3242 11.7188 42.168 11.711ZM49.7148 8.25397C49.7539 8.20709 49.7773 8.12115 49.7852 7.99615C49.8008 7.86334 49.832 7.7149 49.8789 7.55084C49.9336 7.38678 50.0234 7.2149 50.1484 7.03522C50.2734 6.85553 50.4766 6.68756 50.7578 6.53131C51.0312 6.37506 51.2969 6.28131 51.5547 6.25006C51.8125 6.21881 52.0586 6.23053 52.293 6.28522C52.5273 6.3399 52.7461 6.42584 52.9492 6.54303C53.1602 6.66022 53.3516 6.78912 53.5234 6.92975C53.6406 7.0235 53.7344 7.16022 53.8047 7.3399C53.875 7.51178 53.9297 7.70709 53.9688 7.92584C54.0078 8.14459 54.0352 8.37506 54.0508 8.61725C54.0742 8.85162 54.0898 9.08209 54.0977 9.30865C54.1055 9.5274 54.1094 9.73053 54.1094 9.91803C54.1172 10.0977 54.1328 10.2462 54.1562 10.3633C54.1875 10.5352 54.2422 10.6837 54.3203 10.8087C54.3984 10.9258 54.4844 11.0274 54.5781 11.1133C54.6719 11.1915 54.7656 11.254 54.8594 11.3008C54.9531 11.3477 55.0352 11.3829 55.1055 11.4063C55.1523 11.4297 55.1953 11.4454 55.2344 11.4532C55.3125 11.4844 55.3672 11.4844 55.3984 11.4532C55.3516 11.5626 55.3086 11.6563 55.2695 11.7344C55.2305 11.8126 55.1992 11.879 55.1758 11.9337C55.1445 11.9962 55.1172 12.0469 55.0938 12.086C55.0703 12.1329 55.043 12.1758 55.0117 12.2149C54.9883 12.254 54.957 12.2969 54.918 12.3438C54.8789 12.3907 54.8398 12.4415 54.8008 12.4962C54.6992 12.4571 54.6016 12.4102 54.5078 12.3555C54.4219 12.3008 54.3438 12.2501 54.2734 12.2032C54.1875 12.1485 54.1094 12.0938 54.0391 12.0391C53.9688 11.9844 53.9023 11.9219 53.8398 11.8516C53.7852 11.7891 53.7266 11.7227 53.6641 11.6524C53.6094 11.5821 53.5625 11.504 53.5234 11.418C53.4766 11.5196 53.3633 11.6641 53.1836 11.8516C53.0117 12.0391 52.7852 12.211 52.5039 12.3672C52.2227 12.5157 51.8945 12.6212 51.5195 12.6837C51.1523 12.7462 50.7461 12.7032 50.3008 12.5547C50.1055 12.4922 49.9219 12.4024 49.75 12.2852C49.5781 12.1602 49.4297 12.0118 49.3047 11.8399C49.1875 11.668 49.1016 11.4727 49.0469 11.254C49 11.0274 49.0039 10.7774 49.0586 10.504C49.1133 10.2305 49.2109 10.0001 49.3516 9.81256C49.4922 9.62506 49.6602 9.47272 49.8555 9.35553C50.0508 9.23834 50.2695 9.1485 50.5117 9.086C50.7539 9.0235 51.0039 8.98053 51.2617 8.95709C51.4648 8.94928 51.668 8.961 51.8711 8.99225C52.043 9.0235 52.2227 9.08209 52.4102 9.16803C52.5977 9.24615 52.7578 9.36725 52.8906 9.53131C52.8828 9.11725 52.8672 8.78912 52.8438 8.54694C52.8281 8.29694 52.8125 8.10553 52.7969 7.97272C52.7656 7.81647 52.7383 7.70709 52.7148 7.64459C52.6758 7.5899 52.6328 7.5274 52.5859 7.45709C52.5469 7.38678 52.4961 7.32428 52.4336 7.26959C52.3711 7.20709 52.293 7.15631 52.1992 7.11725C52.1055 7.07819 51.9961 7.06256 51.8711 7.07037C51.7383 7.07819 51.6328 7.11334 51.5547 7.17584C51.4766 7.23834 51.4141 7.31256 51.3672 7.3985C51.3281 7.47662 51.3047 7.56256 51.2969 7.65631C51.2891 7.75006 51.293 7.83209 51.3086 7.9024C51.3242 7.94928 51.3477 8.00006 51.3789 8.05475C51.4102 8.10162 51.4531 8.1524 51.5078 8.20709C51.5625 8.26178 51.6367 8.30865 51.7305 8.34772C51.5508 8.37115 51.3906 8.39069 51.25 8.40631C51.1094 8.41412 50.9883 8.42584 50.8867 8.44147C50.7695 8.45709 50.668 8.46881 50.582 8.47662C50.4961 8.48444 50.3945 8.50006 50.2773 8.5235C50.1758 8.53912 50.0508 8.55865 49.9023 8.58209C49.7539 8.60553 49.582 8.63678 49.3867 8.67584C49.4336 8.62115 49.4766 8.57037 49.5156 8.5235C49.5547 8.46881 49.5898 8.42194 49.6211 8.38287C49.6523 8.336 49.6836 8.29303 49.7148 8.25397ZM51.4727 9.6485C51.332 9.65631 51.1914 9.69147 51.0508 9.75397C50.9102 9.80865 50.7852 9.89069 50.6758 10.0001C50.5664 10.1016 50.4727 10.2227 50.3945 10.3633C50.3242 10.4962 50.2891 10.6446 50.2891 10.8087C50.2891 10.9727 50.3281 11.1172 50.4062 11.2422C50.4922 11.3594 50.6016 11.4571 50.7344 11.5352C50.875 11.6133 51.0234 11.6602 51.1797 11.6758C51.3438 11.6915 51.5039 11.6758 51.6602 11.629C51.8086 11.5743 51.9492 11.4883 52.082 11.3712C52.2148 11.2462 52.3281 11.1133 52.4219 10.9727C52.5156 10.8243 52.582 10.6797 52.6211 10.5391C52.6602 10.3907 52.6641 10.2696 52.6328 10.1758C52.5703 9.97272 52.4297 9.83209 52.2109 9.75397C51.9922 9.66803 51.7461 9.63287 51.4727 9.6485ZM59.6875 4.53912C60.1875 4.53131 60.5977 4.62115 60.918 4.80865C61.2461 4.99615 61.5117 5.21881 61.7148 5.47662C61.918 5.73444 62.0742 5.99615 62.1836 6.26178C62.293 6.51959 62.3789 6.72272 62.4414 6.87115C62.457 6.91022 62.4883 6.961 62.5352 7.0235C62.5742 7.07819 62.6289 7.14459 62.6992 7.22272C62.7773 7.29303 62.875 7.37506 62.9922 7.46881C62.75 7.47662 62.5352 7.48444 62.3477 7.49225C62.1602 7.49225 62 7.49615 61.8672 7.50397C61.7188 7.51178 61.5859 7.51959 61.4688 7.5274C61.3516 7.53522 61.207 7.54694 61.0352 7.56256C60.8789 7.57819 60.6875 7.59381 60.4609 7.60944C60.2344 7.62506 59.957 7.6485 59.6289 7.67975C59.8242 7.44537 59.9766 7.23834 60.0859 7.05865C60.2031 6.87115 60.2891 6.70709 60.3438 6.56647C60.4062 6.41803 60.4414 6.28912 60.4492 6.17975C60.4648 6.07037 60.4609 5.97662 60.4375 5.8985C60.3906 5.71881 60.2695 5.5899 60.0742 5.51178C59.5117 5.35553 59.0195 5.48053 58.5977 5.88678C58.1836 6.28522 57.8867 6.94147 57.707 7.85553C57.6211 8.30865 57.5391 8.78131 57.4609 9.2735C57.3906 9.75787 57.3633 10.2032 57.3789 10.6094C57.3945 11.0079 57.4727 11.3321 57.6133 11.5821C57.7539 11.8321 57.9961 11.9493 58.3398 11.9337C58.6758 11.918 58.9609 11.8633 59.1953 11.7696C59.4297 11.668 59.6172 11.5508 59.7578 11.418C59.8984 11.2774 59.9961 11.129 60.0508 10.9727C60.1133 10.8087 60.1367 10.6563 60.1211 10.5157C60.0898 10.4063 60.0078 10.2891 59.875 10.1641C59.7578 10.0547 59.582 9.93365 59.3477 9.80084C59.1133 9.66022 58.7773 9.51569 58.3398 9.36725C58.7539 9.34381 59.0938 9.32819 59.3594 9.32037C59.6328 9.30475 59.8477 9.28912 60.0039 9.2735C60.1914 9.25787 60.3359 9.24615 60.4375 9.23834C60.5312 9.23053 60.668 9.22272 60.8477 9.2149C61.0039 9.20709 61.2031 9.20319 61.4453 9.20319C61.6953 9.20319 62.0078 9.19928 62.3828 9.19147C62.2422 9.33209 62.1328 9.461 62.0547 9.57819C62.0156 9.64069 61.9805 9.69537 61.9492 9.74225C61.918 9.82037 61.9062 9.98053 61.9141 10.2227C61.9141 10.4258 61.9297 10.7266 61.9609 11.1251C61.9922 11.5157 62.0508 12.0508 62.1367 12.7305L60.5781 12.9415L60.6484 11.3594C60.4688 11.7891 60.2422 12.1094 59.9688 12.3204C59.7031 12.5313 59.4492 12.6797 59.207 12.7657C58.918 12.8672 58.6172 12.9141 58.3047 12.9063C57.8984 12.8672 57.4922 12.7735 57.0859 12.6251C56.6797 12.4766 56.3203 12.2501 56.0078 11.9454C55.6953 11.6329 55.4531 11.2305 55.2812 10.7383C55.1172 10.2462 55.0664 9.63678 55.1289 8.91022C55.1992 8.18365 55.3711 7.55084 55.6445 7.01178C55.9258 6.4649 56.2734 6.01178 56.6875 5.6524C57.1016 5.29303 57.5664 5.0235 58.082 4.84381C58.6055 4.65631 59.1406 4.55475 59.6875 4.53912ZM63.8711 8.25397C63.9102 8.20709 63.9336 8.12115 63.9414 7.99615C63.957 7.86334 63.9883 7.7149 64.0352 7.55084C64.0898 7.38678 64.1797 7.2149 64.3047 7.03522C64.4297 6.85553 64.6328 6.68756 64.9141 6.53131C65.1875 6.37506 65.4531 6.28131 65.7109 6.25006C65.9688 6.21881 66.2148 6.23053 66.4492 6.28522C66.6836 6.3399 66.9023 6.42584 67.1055 6.54303C67.3164 6.66022 67.5078 6.78912 67.6797 6.92975C67.7969 7.0235 67.8906 7.16022 67.9609 7.3399C68.0312 7.51178 68.0859 7.70709 68.125 7.92584C68.1641 8.14459 68.1914 8.37506 68.207 8.61725C68.2305 8.85162 68.2461 9.08209 68.2539 9.30865C68.2617 9.5274 68.2656 9.73053 68.2656 9.91803C68.2734 10.0977 68.2891 10.2462 68.3125 10.3633C68.3438 10.5352 68.3984 10.6837 68.4766 10.8087C68.5547 10.9258 68.6406 11.0274 68.7344 11.1133C68.8281 11.1915 68.9219 11.254 69.0156 11.3008C69.1094 11.3477 69.1914 11.3829 69.2617 11.4063C69.3086 11.4297 69.3516 11.4454 69.3906 11.4532C69.4688 11.4844 69.5234 11.4844 69.5547 11.4532C69.5078 11.5626 69.4648 11.6563 69.4258 11.7344C69.3867 11.8126 69.3555 11.879 69.332 11.9337C69.3008 11.9962 69.2734 12.0469 69.25 12.086C69.2266 12.1329 69.1992 12.1758 69.168 12.2149C69.1445 12.254 69.1133 12.2969 69.0742 12.3438C69.0352 12.3907 68.9961 12.4415 68.957 12.4962C68.8555 12.4571 68.7578 12.4102 68.6641 12.3555C68.5781 12.3008 68.5 12.2501 68.4297 12.2032C68.3438 12.1485 68.2656 12.0938 68.1953 12.0391C68.125 11.9844 68.0586 11.9219 67.9961 11.8516C67.9414 11.7891 67.8828 11.7227 67.8203 11.6524C67.7656 11.5821 67.7188 11.504 67.6797 11.418C67.6328 11.5196 67.5195 11.6641 67.3398 11.8516C67.168 12.0391 66.9414 12.211 66.6602 12.3672C66.3789 12.5157 66.0508 12.6212 65.6758 12.6837C65.3086 12.7462 64.9023 12.7032 64.457 12.5547C64.2617 12.4922 64.0781 12.4024 63.9062 12.2852C63.7344 12.1602 63.5859 12.0118 63.4609 11.8399C63.3438 11.668 63.2578 11.4727 63.2031 11.254C63.1562 11.0274 63.1602 10.7774 63.2148 10.504C63.2695 10.2305 63.3672 10.0001 63.5078 9.81256C63.6484 9.62506 63.8164 9.47272 64.0117 9.35553C64.207 9.23834 64.4258 9.1485 64.668 9.086C64.9102 9.0235 65.1602 8.98053 65.418 8.95709C65.6211 8.94928 65.8242 8.961 66.0273 8.99225C66.1992 9.0235 66.3789 9.08209 66.5664 9.16803C66.7539 9.24615 66.9141 9.36725 67.0469 9.53131C67.0391 9.11725 67.0234 8.78912 67 8.54694C66.9844 8.29694 66.9688 8.10553 66.9531 7.97272C66.9219 7.81647 66.8945 7.70709 66.8711 7.64459C66.832 7.5899 66.7891 7.5274 66.7422 7.45709C66.7031 7.38678 66.6523 7.32428 66.5898 7.26959C66.5273 7.20709 66.4492 7.15631 66.3555 7.11725C66.2617 7.07819 66.1523 7.06256 66.0273 7.07037C65.8945 7.07819 65.7891 7.11334 65.7109 7.17584C65.6328 7.23834 65.5703 7.31256 65.5234 7.3985C65.4844 7.47662 65.4609 7.56256 65.4531 7.65631C65.4453 7.75006 65.4492 7.83209 65.4648 7.9024C65.4805 7.94928 65.5039 8.00006 65.5352 8.05475C65.5664 8.10162 65.6094 8.1524 65.6641 8.20709C65.7188 8.26178 65.793 8.30865 65.8867 8.34772C65.707 8.37115 65.5469 8.39069 65.4062 8.40631C65.2656 8.41412 65.1445 8.42584 65.043 8.44147C64.9258 8.45709 64.8242 8.46881 64.7383 8.47662C64.6523 8.48444 64.5508 8.50006 64.4336 8.5235C64.332 8.53912 64.207 8.55865 64.0586 8.58209C63.9102 8.60553 63.7383 8.63678 63.543 8.67584C63.5898 8.62115 63.6328 8.57037 63.6719 8.5235C63.7109 8.46881 63.7461 8.42194 63.7773 8.38287C63.8086 8.336 63.8398 8.29303 63.8711 8.25397ZM65.6289 9.6485C65.4883 9.65631 65.3477 9.69147 65.207 9.75397C65.0664 9.80865 64.9414 9.89069 64.832 10.0001C64.7227 10.1016 64.6289 10.2227 64.5508 10.3633C64.4805 10.4962 64.4453 10.6446 64.4453 10.8087C64.4453 10.9727 64.4844 11.1172 64.5625 11.2422C64.6484 11.3594 64.7578 11.4571 64.8906 11.5352C65.0312 11.6133 65.1797 11.6602 65.3359 11.6758C65.5 11.6915 65.6602 11.6758 65.8164 11.629C65.9648 11.5743 66.1055 11.4883 66.2383 11.3712C66.3711 11.2462 66.4844 11.1133 66.5781 10.9727C66.6719 10.8243 66.7383 10.6797 66.7773 10.5391C66.8164 10.3907 66.8203 10.2696 66.7891 10.1758C66.7266 9.97272 66.5859 9.83209 66.3672 9.75397C66.1484 9.66803 65.9023 9.63287 65.6289 9.6485ZM69.4375 7.76178L71.5938 7.78522C71.4688 8.26178 71.375 8.66803 71.3125 9.00397C71.2578 9.3399 71.2227 9.62115 71.207 9.84772C71.1758 10.1055 71.168 10.3243 71.1836 10.504C71.207 10.668 71.2461 10.8438 71.3008 11.0313C71.3477 11.1876 71.418 11.3672 71.5117 11.5704C71.6055 11.7735 71.7305 11.9766 71.8867 12.1797C71.793 12.1485 71.6914 12.1251 71.582 12.1094C71.4727 12.0938 71.3711 12.0821 71.2773 12.0743C71.168 12.0665 71.0586 12.0665 70.9492 12.0743C70.8398 12.0821 70.7188 12.0938 70.5859 12.1094C70.4766 12.1251 70.3438 12.1446 70.1875 12.168C70.0312 12.1915 69.8672 12.2227 69.6953 12.2618C69.8125 11.9102 69.9023 11.6055 69.9648 11.3477C70.0352 11.0899 70.0859 10.8751 70.1172 10.7032C70.1484 10.5001 70.168 10.336 70.1758 10.211C70.1758 10.0547 70.1758 9.87897 70.1758 9.68365C70.1758 9.48053 70.1758 9.28522 70.1758 9.09772C70.1758 8.91022 70.1719 8.74615 70.1641 8.60553C70.1562 8.45709 70.1406 8.36334 70.1172 8.32428L70 8.20709C69.9531 8.16803 69.8828 8.11334 69.7891 8.04303C69.7031 7.9649 69.5859 7.87115 69.4375 7.76178ZM70.2695 5.95709C70.4336 5.87115 70.5977 5.84772 70.7617 5.88678C70.9336 5.92584 71.0664 6.00006 71.1602 6.10944C71.2539 6.21881 71.2852 6.34772 71.2539 6.49615C71.2305 6.64459 71.1055 6.78912 70.8789 6.92975C70.6523 7.06256 70.4531 7.10944 70.2812 7.07037C70.1094 7.03131 69.9883 6.94928 69.918 6.82428C69.8477 6.69928 69.8359 6.55475 69.8828 6.39069C69.9297 6.21881 70.0586 6.07428 70.2695 5.95709ZM72.6719 11.711C72.7266 11.4532 72.7656 11.2266 72.7891 11.0313C72.8203 10.8282 72.8438 10.6602 72.8594 10.5274C72.875 10.3712 72.8828 10.2383 72.8828 10.129C72.875 9.99615 72.8672 9.8399 72.8594 9.66022C72.8594 9.47272 72.8516 9.28912 72.8359 9.10944C72.8281 8.92194 72.8164 8.75787 72.8008 8.61725C72.7852 8.46881 72.7656 8.36334 72.7422 8.30084C72.7109 8.23834 72.668 8.17194 72.6133 8.10162C72.5039 7.96881 72.3438 7.8399 72.1328 7.7149C72.3125 7.67584 72.4648 7.64459 72.5898 7.62115C72.7227 7.5899 72.832 7.56256 72.918 7.53912C73.0117 7.50787 73.0938 7.48053 73.1641 7.45709C73.2266 7.43365 73.3008 7.41022 73.3867 7.38678C73.457 7.37115 73.543 7.35162 73.6445 7.32819C73.7461 7.30475 73.8633 7.2774 73.9961 7.24615L73.9609 8.31256C74.2109 8.01569 74.4648 7.79303 74.7227 7.64459C74.9805 7.49615 75.2227 7.39069 75.4492 7.32819C75.707 7.25006 75.9609 7.211 76.2109 7.211C76.5234 7.22662 76.8125 7.2774 77.0781 7.36334C77.3516 7.44928 77.5859 7.55084 77.7812 7.66803C77.9844 7.7774 78.1484 7.89459 78.2734 8.01959C78.3984 8.14459 78.4727 8.25397 78.4961 8.34772C78.5898 8.6524 78.6133 8.93365 78.5664 9.19147C78.5195 9.44147 78.457 9.68756 78.3789 9.92975C78.3086 10.1641 78.2461 10.3985 78.1914 10.6329C78.1445 10.8672 78.1641 11.1212 78.25 11.3946C78.2812 11.4649 78.3125 11.5352 78.3438 11.6055C78.375 11.668 78.4141 11.7305 78.4609 11.793C78.5078 11.8555 78.5625 11.9063 78.625 11.9454C78.5391 11.9376 78.4531 11.9337 78.3672 11.9337C78.2812 11.9258 78.2031 11.918 78.1328 11.9102C78.0469 11.9024 77.9688 11.8946 77.8984 11.8868C77.8203 11.879 77.7148 11.8751 77.582 11.8751C77.3555 11.8751 77.0039 11.8868 76.5273 11.9102C76.5977 11.7462 76.6523 11.6094 76.6914 11.5001C76.7383 11.3829 76.7773 11.2891 76.8086 11.2188C76.8398 11.1329 76.8633 11.0665 76.8789 11.0196C76.9727 10.793 77.0273 10.5352 77.043 10.2462C77.0664 9.95709 77.0469 9.66412 76.9844 9.36725C76.9609 9.26569 76.9219 9.14459 76.8672 9.00397C76.8125 8.86334 76.7383 8.72662 76.6445 8.59381C76.5586 8.461 76.4531 8.34772 76.3281 8.25397C76.2109 8.16022 76.0742 8.10553 75.918 8.0899C75.7617 8.07428 75.5859 8.11334 75.3906 8.20709C75.2031 8.30084 75 8.47272 74.7812 8.72272C74.6172 8.93365 74.4883 9.19147 74.3945 9.49615C74.3086 9.75397 74.25 10.0782 74.2188 10.4688C74.1875 10.8516 74.2344 11.3008 74.3594 11.8165C74.25 11.8008 74.1484 11.793 74.0547 11.793C73.9609 11.7852 73.8828 11.7774 73.8203 11.7696C73.7422 11.7618 73.6719 11.754 73.6094 11.7462C73.5391 11.7462 73.4609 11.7422 73.375 11.7344C73.2969 11.7344 73.1992 11.7344 73.082 11.7344C72.9648 11.7266 72.8281 11.7188 72.6719 11.711ZM84.5078 6.30865C84.4375 6.48053 84.375 6.63678 84.3203 6.7774C84.2734 6.91803 84.2305 7.04303 84.1914 7.1524C84.1523 7.2774 84.1172 7.38678 84.0859 7.48053C84.0547 7.5899 84.0195 7.7149 83.9805 7.85553C83.9414 7.98053 83.8906 8.13678 83.8281 8.32428C83.7734 8.50397 83.707 8.71881 83.6289 8.96881C83.5664 8.59381 83.4531 8.29694 83.2891 8.07819C83.125 7.85162 82.957 7.67584 82.7852 7.55084C82.582 7.41022 82.3633 7.30865 82.1289 7.24615C81.707 7.17584 81.4023 7.18365 81.2148 7.26959C81.0273 7.35553 80.9023 7.4649 80.8398 7.59772C80.8086 7.6524 80.7734 7.72272 80.7344 7.80865C80.7031 7.88678 80.6758 7.96881 80.6523 8.05475C80.6367 8.14069 80.6328 8.22662 80.6406 8.31256C80.6484 8.3985 80.6836 8.46881 80.7461 8.5235C80.7852 8.56256 80.8867 8.61725 81.0508 8.68756C81.2148 8.75006 81.4102 8.82428 81.6367 8.91022C81.8711 8.98834 82.1172 9.07428 82.375 9.16803C82.6406 9.26178 82.8906 9.35553 83.125 9.44928C83.3594 9.54303 83.5625 9.63678 83.7344 9.73053C83.9062 9.82428 84.0195 9.91022 84.0742 9.98834C84.1211 10.0665 84.1719 10.1719 84.2266 10.3047C84.2891 10.4297 84.332 10.5704 84.3555 10.7266C84.3867 10.8751 84.3945 11.0313 84.3789 11.1954C84.3711 11.3516 84.3281 11.5079 84.25 11.6641C84.1719 11.8204 84.0469 11.9649 83.875 12.0977C83.7109 12.2305 83.4883 12.3399 83.207 12.4258C82.8789 12.5274 82.5625 12.5547 82.2578 12.5079C81.9531 12.461 81.6719 12.3907 81.4141 12.2969C81.1641 12.2032 80.9453 12.1133 80.7578 12.0274C80.5703 11.9337 80.4375 11.8946 80.3594 11.9102C80.2734 11.9258 80.1758 11.9688 80.0664 12.0391C79.957 12.1094 79.8516 12.1837 79.75 12.2618C79.6562 12.3321 79.5742 12.3985 79.5039 12.461C79.4336 12.5157 79.3984 12.5352 79.3984 12.5196C79.3984 12.504 79.4102 12.4571 79.4336 12.379C79.4648 12.3008 79.4961 12.2071 79.5273 12.0977C79.5664 11.9805 79.6016 11.8555 79.6328 11.7227C79.6719 11.5821 79.6992 11.4493 79.7148 11.3243C79.7305 11.2227 79.75 11.0977 79.7734 10.9493C79.7891 10.8165 79.8086 10.6563 79.832 10.4688C79.8633 10.2735 79.8984 10.0391 79.9375 9.76569C79.9766 9.96881 80.0312 10.1446 80.1016 10.293C80.1797 10.4415 80.2539 10.5704 80.3242 10.6797C80.4102 10.8047 80.4922 10.9102 80.5703 10.9962C80.6875 11.1055 80.8242 11.2071 80.9805 11.3008C81.1445 11.3946 81.3086 11.4766 81.4727 11.5469C81.6367 11.6094 81.793 11.6485 81.9414 11.6641C82.0898 11.6797 82.2148 11.6641 82.3164 11.6172C82.418 11.5704 82.5039 11.4844 82.5742 11.3594C82.6523 11.2344 82.707 11.0977 82.7383 10.9493C82.7695 10.8008 82.7812 10.6602 82.7734 10.5274C82.7656 10.3868 82.7305 10.2735 82.668 10.1876C82.6211 10.1329 82.5117 10.0626 82.3398 9.97662C82.1758 9.89069 81.9766 9.79694 81.7422 9.69537C81.5156 9.59381 81.2734 9.48834 81.0156 9.37897C80.7656 9.26959 80.5273 9.16022 80.3008 9.05084C80.082 8.93365 79.8984 8.82428 79.75 8.72272C79.6094 8.61334 79.5312 8.51569 79.5156 8.42975C79.5 8.30475 79.4883 8.16803 79.4805 8.01959C79.4727 7.86334 79.4805 7.711 79.5039 7.56256C79.5352 7.40631 79.5898 7.25787 79.668 7.11725C79.7539 6.97662 79.8789 6.85944 80.043 6.76569C80.1523 6.70319 80.2969 6.65631 80.4766 6.62506C80.6562 6.59381 80.8555 6.57819 81.0742 6.57819C81.293 6.57037 81.5195 6.57819 81.7539 6.60162C81.9883 6.61725 82.2109 6.64069 82.4219 6.67194C82.6406 6.69537 82.8359 6.72662 83.0078 6.76569C83.1875 6.80475 83.3242 6.8399 83.418 6.87115C83.5273 6.91022 83.6445 6.91412 83.7695 6.88287C83.8789 6.85944 83.9961 6.80865 84.1211 6.73053C84.2461 6.6524 84.375 6.51178 84.5078 6.30865Z" fill="#96A0B0"/>
</svg>
