<svg width="44" height="37" viewBox="0 0 44 37" fill="none" xmlns="http://www.w3.org/2000/svg">
<g clip-path="url(#clip0_31_464)">
<path d="M33.1837 4.75234H32.5454C32.5454 3.55848 32.5454 3.81644 32.5454 2.61508C32.5454 2.39406 32.3663 2.2149 32.1452 2.2149H31.052C30.831 2.2149 30.6518 2.39406 30.6518 2.61508C30.6518 3.81648 30.6518 3.55834 30.6518 4.75234H29.2544C29.3127 4.14025 28.8619 3.60428 28.2647 3.54114C27.6504 3.47636 27.1057 3.92537 27.0418 4.53015L27.0183 4.7523H25.0923C24.5241 5.97906 23.2978 6.77111 21.9394 6.77111C20.5623 6.77111 19.3464 5.96106 18.7866 4.7523H16.8676L16.8441 4.53015C16.7797 3.92087 16.23 3.47669 15.6211 3.54109C15.0248 3.60423 14.5731 4.13959 14.6315 4.75239H13.2304C13.2304 3.55853 13.2304 3.81648 13.2304 2.61512C13.2304 2.39411 13.0513 2.21495 12.8303 2.21495H11.737C11.516 2.21495 11.3368 2.39411 11.3368 2.61512C11.3368 3.81653 11.3368 3.55839 11.3368 4.75239H10.6986C10.2803 4.75234 9.94116 5.09144 9.94116 5.5098C9.94116 5.92811 10.2803 6.26725 10.6986 6.26725H11.3369C11.3369 7.46111 11.3369 7.20316 11.3369 8.40451C11.3369 8.62553 11.5161 8.80469 11.737 8.80469H12.8303C13.0513 8.80469 13.2305 8.62548 13.2305 8.40451C13.2305 7.20311 13.2305 7.46125 13.2305 6.26725H14.791C14.8389 6.72048 15.1778 9.92519 15.2279 10.3991C15.3285 11.3502 16.5266 11.7523 17.1714 11.014L18.7345 9.2252V13.4807L14.6901 15.1239C14.2179 15.3157 13.8817 15.7419 13.8048 16.2456L12.9979 21.5356C12.8774 22.3252 13.4198 23.0628 14.2094 23.1833C14.999 23.3037 15.7367 22.7613 15.8571 21.9717L16.5402 17.4941L20.2816 15.974H23.6029L27.3444 17.4941L28.0275 21.9717C28.1479 22.7614 28.8856 23.3037 29.6752 23.1833C30.4647 23.0628 31.0071 22.3251 30.8867 21.5356L30.0797 16.2456C30.0029 15.7418 29.6666 15.3157 29.1945 15.1239L25.1179 13.4676V9.18705L26.7143 11.014C27.3419 11.7324 28.5543 11.3764 28.6578 10.3991C28.7078 9.92594 29.0469 6.71964 29.0948 6.2672H30.6518C30.6518 7.46106 30.6518 7.20311 30.6518 8.40447C30.6518 8.62548 30.8311 8.80464 31.052 8.80464H32.1453C32.3663 8.80464 32.5455 8.62544 32.5455 8.40447C32.5455 7.20306 32.5455 7.4612 32.5455 6.2672H33.1838C33.6021 6.2672 33.9412 5.92811 33.9412 5.50975C33.9412 5.09144 33.6021 4.75234 33.1837 4.75234ZM17.1721 7.63267C17.1122 7.06558 17.0871 6.82853 17.0277 6.2672H18.3653C17.8807 6.82187 17.6635 7.07041 17.1721 7.63267ZM26.7136 7.63267C26.1608 7 26.8709 7.81267 25.5204 6.2672H26.858C26.7458 7.32751 26.7735 7.06633 26.7136 7.63267Z" fill="#96A0B0"/>
<path d="M21.9393 5.79539C23.3188 5.79539 24.437 4.67714 24.437 3.29771C24.437 1.91827 23.3188 0.800018 21.9393 0.800018C20.5599 0.800018 19.4417 1.91827 19.4417 3.29771C19.4417 4.67714 20.5599 5.79539 21.9393 5.79539Z" fill="#96A0B0"/>
</g>
<path d="M7.21851 30.744H3.17451C3.19851 31.32 3.35451 31.768 3.64251 32.088C3.93851 32.432 4.34651 32.604 4.86651 32.604C5.58651 32.604 6.22251 32.448 6.77451 32.136V33.348C6.13451 33.588 5.48651 33.708 4.83051 33.708C3.79851 33.708 3.03051 33.38 2.52651 32.724C2.08651 32.14 1.86651 31.324 1.86651 30.276C1.86651 29.268 2.11051 28.448 2.59851 27.816C3.08651 27.184 3.74251 26.868 4.56651 26.868C5.48651 26.868 6.17451 27.196 6.63051 27.852C7.02251 28.412 7.21851 29.152 7.21851 30.072V30.744ZM5.91051 29.604C5.91051 29.156 5.79451 28.78 5.56251 28.476C5.32251 28.156 5.00651 27.996 4.61451 27.996C4.21451 27.996 3.87451 28.16 3.59451 28.488C3.31451 28.816 3.17451 29.188 3.17451 29.604H5.91051ZM9.98957 33.516H8.68157V23.964H9.98957V33.516ZM13.0376 33.564H11.7536V26.844H13.0376V33.564ZM13.0376 25.692H11.7536V24.192H13.0376V25.692ZM18.0388 33.516C17.7348 33.644 17.3908 33.708 17.0068 33.708C16.2468 33.708 15.7548 33.504 15.5308 33.096C15.3628 32.824 15.2788 32.3 15.2788 31.524V28.128H14.2468V26.94H15.2788V25.512L16.5748 25.092V26.94H17.8468V28.128H16.5748V31.86C16.5748 32.324 16.7868 32.556 17.2108 32.556C17.4908 32.556 17.7348 32.504 17.9428 32.4L18.0388 33.516ZM24.2341 30.744H20.1901C20.2141 31.32 20.3701 31.768 20.6581 32.088C20.9541 32.432 21.3621 32.604 21.8821 32.604C22.6021 32.604 23.2381 32.448 23.7901 32.136V33.348C23.1501 33.588 22.5021 33.708 21.8461 33.708C20.8141 33.708 20.0461 33.38 19.5421 32.724C19.1021 32.14 18.8821 31.324 18.8821 30.276C18.8821 29.268 19.1261 28.448 19.6141 27.816C20.1021 27.184 20.7581 26.868 21.5821 26.868C22.5021 26.868 23.1901 27.196 23.6461 27.852C24.0381 28.412 24.2341 29.152 24.2341 30.072V30.744ZM22.9261 29.604C22.9261 29.156 22.8101 28.78 22.5781 28.476C22.3381 28.156 22.0221 27.996 21.6301 27.996C21.2301 27.996 20.8901 28.16 20.6101 28.488C20.3301 28.816 20.1901 29.188 20.1901 29.604H22.9261ZM30.4972 33.564H25.9372V24.612H30.3652V25.836H27.2452V28.332H30.1972V29.556H27.2452V32.328H30.4972V33.564ZM37.7323 25.824H35.2963V33.516H33.9883V25.824H31.5643V24.636H37.7323V25.824ZM43.2033 25.86H40.1913V28.332H43.0353V29.568H40.1913V33.516H38.8833V24.636H43.2033V25.86Z" fill="#96A0B0"/>
<defs>
<clipPath id="clip0_31_464">
<rect width="24" height="24" fill="white" transform="translate(9.94116)"/>
</clipPath>
</defs>
</svg>
