<svg width="100" height="34" viewBox="0 0 100 34" fill="none" xmlns="http://www.w3.org/2000/svg">
<g clip-path="url(#clip0_31_425)">
<path d="M7.78975 9.18083L0 16.9706L1.66925 18.6398L9.459 10.8501L7.78975 9.18083Z" fill="#96A0B0"/>
<path d="M10.8501 12.2411L3.0603 20.0308L4.72952 21.7L12.5193 13.9103L10.8501 12.2411Z" fill="#96A0B0"/>
<path d="M6.12061 23.0911L7.78982 24.7603L10.1546 22.3956L13.2148 19.3353L15.5796 16.9706L13.9104 15.3013L6.12061 23.0911Z" fill="#96A0B0"/>
<path d="M16.9705 6.47119e-05L15.3013 1.66931L23.091 9.45906L24.7603 7.78982L16.9705 6.47119e-05Z" fill="#96A0B0"/>
<path d="M13.9102 3.06037L12.241 4.72958L20.0307 12.5193L21.6999 10.8501L13.9102 3.06037Z" fill="#96A0B0"/>
<path d="M9.18091 7.78979L11.5457 10.1545L14.6059 13.2148L16.9706 15.5795L18.6398 13.9103L10.8501 6.12058L9.18091 7.78979Z" fill="#96A0B0"/>
<path d="M32.2719 15.3013L24.4822 23.0911L26.1514 24.7603L33.9412 16.9706L32.2719 15.3013Z" fill="#96A0B0"/>
<path d="M29.2116 12.2411L21.4219 20.0308L23.0911 21.7L30.8808 13.9103L29.2116 12.2411Z" fill="#96A0B0"/>
<path d="M23.7866 11.5455L20.7263 14.6058L18.3616 16.9706L20.0308 18.6398L27.8206 10.85L26.1514 9.18079L23.7866 11.5455Z" fill="#96A0B0"/>
<path d="M10.8502 24.4821L9.18091 26.1514L16.9707 33.9411L18.6399 32.2719L10.8502 24.4821Z" fill="#96A0B0"/>
<path d="M13.9102 21.4219L12.241 23.0911L20.0307 30.8808L21.6999 29.2116L13.9102 21.4219Z" fill="#96A0B0"/>
<path d="M15.3013 20.0309L23.091 27.8206L24.7602 26.1513L22.3955 23.7866L19.3353 20.7263L16.9705 18.3616L15.3013 20.0309Z" fill="#96A0B0"/>
</g>
<path d="M39.1169 20.3672C38.9099 20.1797 38.8552 20.0156 38.9529 19.875L39.2576 19.4355C39.363 19.2832 39.533 19.2949 39.7673 19.4707C40.0759 19.7011 40.3962 19.8906 40.7283 20.039C41.0642 20.1875 41.4705 20.2617 41.947 20.2617C42.2986 20.2617 42.5955 20.209 42.8376 20.1035C43.0798 19.998 43.2732 19.8476 43.4177 19.6523C43.5662 19.4531 43.6404 19.2129 43.6404 18.9316C43.6404 18.7285 43.6091 18.541 43.5466 18.3691C43.488 18.1933 43.3923 18.0468 43.2595 17.9297C43.1267 17.8125 42.988 17.7207 42.8435 17.6543C42.6052 17.5449 42.2478 17.4179 41.7712 17.2734C41.2986 17.1289 40.8845 16.9726 40.5291 16.8047C40.1775 16.6367 39.8962 16.4336 39.6853 16.1953C39.4783 15.957 39.3396 15.7129 39.2693 15.4629C39.2029 15.209 39.1697 14.9199 39.1697 14.5957C39.1697 14.0996 39.3142 13.6718 39.6033 13.3125C39.8923 12.9531 40.2458 12.7148 40.6638 12.5976C41.0857 12.4804 41.5134 12.4218 41.947 12.4218C42.4431 12.4218 42.8748 12.4863 43.2419 12.6152C43.6091 12.7441 43.9373 12.9121 44.2263 13.1191C44.4294 13.2636 44.4763 13.416 44.3669 13.5761L44.0681 14.0039C43.9783 14.1328 43.8025 14.1054 43.5408 13.9218C43.3416 13.7812 43.0974 13.6504 42.8083 13.5293C42.5232 13.4043 42.24 13.3418 41.9587 13.3418C41.5994 13.3418 41.3005 13.3847 41.0623 13.4707C40.824 13.5527 40.6365 13.6933 40.4998 13.8925C40.363 14.0918 40.2947 14.3222 40.2947 14.584C40.2947 14.748 40.3103 14.9004 40.3416 15.041C40.3728 15.1777 40.4529 15.3183 40.5818 15.4629C40.7107 15.6074 40.8669 15.7187 41.0505 15.7968C41.2966 15.9023 41.6775 16.0273 42.1931 16.1718C42.7126 16.3125 43.1658 16.4863 43.5525 16.6933C43.9119 16.8847 44.1697 17.0859 44.3259 17.2968C44.4861 17.5039 44.6091 17.7304 44.6951 17.9765C44.7849 18.2187 44.8298 18.4922 44.8298 18.7968C44.8298 19.3515 44.6873 19.8144 44.4021 20.1855C44.1169 20.5566 43.7791 20.8144 43.3884 20.959C42.9978 21.1035 42.5076 21.1758 41.9177 21.1758C41.2107 21.1758 40.6248 21.0937 40.1599 20.9297C39.6951 20.7656 39.3474 20.5781 39.1169 20.3672ZM45.8494 15.6211C45.6736 15.6211 45.5857 15.5527 45.5857 15.416V15.0527C45.5857 14.916 45.6736 14.8476 45.8494 14.8476H46.5408V14.3203C46.5408 14.2422 46.5603 14.1679 46.5994 14.0976L47.0095 13.3535C47.0837 13.2168 47.1443 13.1484 47.1912 13.1484H47.3962C47.5134 13.1484 47.572 13.2168 47.572 13.3535V14.8476H48.8201C48.9958 14.8476 49.0837 14.916 49.0837 15.0527V15.416C49.0837 15.5527 48.9958 15.6211 48.8201 15.6211H47.572V19.3535C47.572 19.7636 47.6326 20.0312 47.7537 20.1562C47.8787 20.2773 48.0271 20.3379 48.199 20.3379C48.3318 20.3379 48.49 20.2988 48.6736 20.2207C48.8611 20.1425 48.99 20.0761 49.0603 20.0215C49.1306 19.9668 49.1853 19.9843 49.2244 20.0742L49.4177 20.5254C49.449 20.6035 49.4255 20.666 49.3474 20.7129C49.1951 20.8027 48.9724 20.8906 48.6794 20.9765C48.3865 21.0586 48.0935 21.0996 47.8005 21.0996C47.3943 21.0996 47.0818 20.9531 46.863 20.6601C46.6482 20.3672 46.5408 19.9531 46.5408 19.4179V15.6211H45.8494ZM50.8533 21C50.6775 21 50.5896 20.9121 50.5896 20.7363V15.1113C50.5896 14.9355 50.6775 14.8476 50.8533 14.8476H51.3455C51.5212 14.8476 51.6091 14.9355 51.6091 15.1113V15.8144H51.6326C51.8201 15.4629 52.0408 15.1972 52.2947 15.0175C52.5486 14.8379 52.865 14.748 53.2439 14.748C53.4939 14.748 53.6697 14.7695 53.7712 14.8125C53.8611 14.8476 53.8943 14.9062 53.8708 14.9883L53.7361 15.4687C53.7166 15.539 53.6658 15.5664 53.5837 15.5508C53.447 15.5234 53.3181 15.5097 53.197 15.5097C52.74 15.5097 52.363 15.7168 52.0662 16.1308C51.7693 16.541 51.6208 17.1015 51.6208 17.8125V20.7363C51.6208 20.9121 51.533 21 51.3572 21H50.8533ZM54.4861 17.9238C54.4861 16.955 54.7283 16.1836 55.2126 15.6093C55.697 15.0351 56.3904 14.748 57.2927 14.748C58.0427 14.748 58.6638 15.0117 59.156 15.539C59.6521 16.0625 59.9001 16.9004 59.9001 18.0527C59.9001 18.2285 59.8201 18.3164 59.6599 18.3164H55.5759C55.6423 19.0703 55.8455 19.5957 56.1853 19.8925C56.5251 20.1855 56.9099 20.332 57.3396 20.332C57.7927 20.332 58.1404 20.2558 58.3826 20.1035C58.6248 19.9511 58.8025 19.8008 58.9158 19.6523C59.0408 19.4883 59.1619 19.457 59.2791 19.5586L59.6248 19.8574C59.7146 19.9355 59.7146 20.0429 59.6248 20.1797C59.5505 20.2929 59.3376 20.4746 58.9861 20.7246C58.6384 20.9746 58.0896 21.0996 57.3396 21.0996C56.363 21.0996 55.6423 20.8125 55.1775 20.2383C54.7166 19.664 54.4861 18.8925 54.4861 17.9238ZM55.5525 17.5547H58.863C58.8474 17.0078 58.7068 16.5293 58.4412 16.1191C58.1755 15.705 57.7849 15.498 57.2693 15.498C56.8162 15.498 56.4314 15.6504 56.115 15.955C55.7986 16.2558 55.6111 16.789 55.5525 17.5547ZM61.5173 21C61.3416 21 61.2537 20.9121 61.2537 20.7363V15.1113C61.2537 14.9355 61.3416 14.8476 61.5173 14.8476H62.0095C62.1853 14.8476 62.2732 14.9355 62.2732 15.1113V15.58H62.2966C62.5505 15.2988 62.824 15.0898 63.1169 14.9531C63.4099 14.8164 63.7751 14.748 64.2126 14.748C64.9236 14.748 65.4333 14.9492 65.7419 15.3515C66.0544 15.75 66.2107 16.2968 66.2107 16.9922V20.7363C66.2107 20.9121 66.1228 21 65.947 21H65.4431C65.2673 21 65.1794 20.9121 65.1794 20.7363V17.2734C65.1794 16.5078 65.0525 16.0234 64.7986 15.8203C64.5447 15.6133 64.2224 15.5097 63.8318 15.5097C63.324 15.5097 62.9392 15.6621 62.6775 15.9668C62.4158 16.2675 62.2849 16.7851 62.2849 17.5195V20.7363C62.2849 20.9121 62.197 21 62.0212 21H61.5173ZM67.5291 17.9238C67.5291 17.084 67.7322 16.3457 68.1384 15.709C68.5447 15.0683 69.1384 14.748 69.9197 14.748C70.3689 14.748 70.7283 14.8222 70.9978 14.9707C71.2673 15.1191 71.5095 15.3222 71.7244 15.58H71.7361L71.7712 15.1113C71.783 14.9355 71.8591 14.8476 71.9998 14.8476H72.4919C72.6677 14.8476 72.7556 14.9355 72.7556 15.1113V21.0468C72.7556 21.7968 72.5818 22.3828 72.2341 22.8047C71.8904 23.2304 71.2087 23.4433 70.1892 23.4433C69.5056 23.4433 68.9939 23.3652 68.6541 23.209C68.3142 23.0566 68.072 22.8945 67.9275 22.7226C67.822 22.5937 67.8162 22.4843 67.9099 22.3945L68.2322 22.0781C68.322 21.9922 68.447 22.0195 68.6072 22.1601C68.8142 22.3476 69.0134 22.4804 69.2048 22.5586C69.3962 22.6406 69.7263 22.6816 70.1951 22.6816C70.7263 22.6816 71.113 22.5683 71.3552 22.3418C71.6013 22.1152 71.7244 21.6465 71.7244 20.9355V20.584C71.7244 20.4629 71.7283 20.3437 71.7361 20.2265H71.7244C71.5212 20.4961 71.281 20.709 71.0037 20.8652C70.7302 21.0215 70.3689 21.0996 69.9197 21.0996C69.1384 21.0996 68.5447 20.7812 68.1384 20.1445C67.7322 19.5039 67.5291 18.7636 67.5291 17.9238ZM68.6189 17.9238C68.6189 18.6425 68.7419 19.2246 68.988 19.6699C69.238 20.1152 69.6599 20.3379 70.2537 20.3379C70.6755 20.3379 71.0251 20.1953 71.3025 19.9101C71.5837 19.6211 71.7244 19.1836 71.7244 18.5976V17.25C71.7244 16.664 71.5837 16.2285 71.3025 15.9433C71.0251 15.6543 70.6755 15.5097 70.2537 15.5097C69.6599 15.5097 69.238 15.7324 68.988 16.1777C68.7419 16.623 68.6189 17.205 68.6189 17.9238ZM74.1267 15.6211C73.9509 15.6211 73.863 15.5527 73.863 15.416V15.0527C73.863 14.916 73.9509 14.8476 74.1267 14.8476H74.8181V14.3203C74.8181 14.2422 74.8376 14.1679 74.8767 14.0976L75.2869 13.3535C75.3611 13.2168 75.4216 13.1484 75.4685 13.1484H75.6736C75.7908 13.1484 75.8494 13.2168 75.8494 13.3535V14.8476H77.0974C77.2732 14.8476 77.3611 14.916 77.3611 15.0527V15.416C77.3611 15.5527 77.2732 15.6211 77.0974 15.6211H75.8494V19.3535C75.8494 19.7636 75.9099 20.0312 76.031 20.1562C76.156 20.2773 76.3044 20.3379 76.4763 20.3379C76.6091 20.3379 76.7673 20.2988 76.9509 20.2207C77.1384 20.1425 77.2673 20.0761 77.3376 20.0215C77.408 19.9668 77.4626 19.9843 77.5017 20.0742L77.6951 20.5254C77.7263 20.6035 77.7029 20.666 77.6248 20.7129C77.4724 20.8027 77.2498 20.8906 76.9568 20.9765C76.6638 21.0586 76.3708 21.0996 76.0779 21.0996C75.6716 21.0996 75.3591 20.9531 75.1404 20.6601C74.9255 20.3672 74.8181 19.9531 74.8181 19.4179V15.6211H74.1267ZM79.1306 21C78.9548 21 78.8669 20.9121 78.8669 20.7363V12.6152C78.8669 12.4394 78.9548 12.3515 79.1306 12.3515H79.6345C79.8103 12.3515 79.8982 12.4394 79.8982 12.6152V15.2285C79.8982 15.3457 79.8943 15.4629 79.8865 15.58H79.9099C80.1638 15.2988 80.4373 15.0898 80.7302 14.9531C81.0232 14.8164 81.3884 14.748 81.8259 14.748C82.5369 14.748 83.0466 14.9492 83.3552 15.3515C83.6677 15.75 83.824 16.2968 83.824 16.9922V20.7363C83.824 20.9121 83.7361 21 83.5603 21H83.0564C82.8806 21 82.7927 20.9121 82.7927 20.7363V17.2734C82.7927 16.5078 82.6658 16.0234 82.4119 15.8203C82.158 15.6133 81.8357 15.5097 81.4451 15.5097C80.9373 15.5097 80.5525 15.6621 80.2908 15.9668C80.0291 16.2675 79.8982 16.7851 79.8982 17.5195V20.7363C79.8982 20.9121 79.8103 21 79.6345 21H79.1306ZM85.9333 21C85.738 21 85.6404 20.8925 85.6404 20.6777V12.9199C85.6404 12.705 85.738 12.5976 85.9333 12.5976H88.2185C89.5466 12.5976 90.4412 12.8125 90.9021 13.2422C91.363 13.6718 91.5935 14.1894 91.5935 14.7949C91.5935 15.2754 91.4021 15.6836 91.0193 16.0195C90.6365 16.3515 90.2654 16.5468 89.906 16.6054V16.623C90.3005 16.6582 90.74 16.8554 91.2244 17.2148C91.7126 17.5703 91.9568 18.0547 91.9568 18.6679C91.9568 19.332 91.7107 19.8867 91.2185 20.332C90.7302 20.7773 89.8279 21 88.5115 21H85.9333ZM86.7654 20.039H88.324C89.1638 20.039 89.7791 19.9355 90.1697 19.7285C90.5603 19.5215 90.7556 19.1562 90.7556 18.6328C90.7556 18.1484 90.5564 17.7734 90.158 17.5078C89.7634 17.2422 89.1521 17.1093 88.324 17.1093H86.7654V20.039ZM86.7654 16.2656H88.2361C88.8884 16.2656 89.4197 16.1269 89.8298 15.8496C90.2439 15.5683 90.4509 15.2168 90.4509 14.7949C90.4509 14.3925 90.2966 14.0859 89.988 13.875C89.6794 13.664 89.0955 13.5586 88.2361 13.5586H86.7654V16.2656ZM93.697 21C93.5212 21 93.4333 20.9121 93.4333 20.7363V15.1113C93.4333 14.9355 93.5212 14.8476 93.697 14.8476H94.2009C94.3767 14.8476 94.4646 14.9355 94.4646 15.1113V20.7363C94.4646 20.9121 94.3767 21 94.2009 21H93.697ZM93.697 13.7343C93.5212 13.7343 93.4333 13.6465 93.4333 13.4707V12.9668C93.4333 12.791 93.5212 12.7031 93.697 12.7031H94.2009C94.3767 12.7031 94.4646 12.791 94.4646 12.9668V13.4707C94.4646 13.6465 94.3767 13.7343 94.2009 13.7343H93.697ZM95.8298 15.6211C95.6541 15.6211 95.5662 15.5527 95.5662 15.416V15.0527C95.5662 14.916 95.6541 14.8476 95.8298 14.8476H96.5212V14.3203C96.5212 14.2422 96.5408 14.1679 96.5798 14.0976L96.99 13.3535C97.0642 13.2168 97.1248 13.1484 97.1716 13.1484H97.3767C97.4939 13.1484 97.5525 13.2168 97.5525 13.3535V14.8476H98.8005C98.9763 14.8476 99.0642 14.916 99.0642 15.0527V15.416C99.0642 15.5527 98.9763 15.6211 98.8005 15.6211H97.5525V19.3535C97.5525 19.7636 97.613 20.0312 97.7341 20.1562C97.8591 20.2773 98.0076 20.3379 98.1794 20.3379C98.3123 20.3379 98.4705 20.2988 98.6541 20.2207C98.8416 20.1425 98.9705 20.0761 99.0408 20.0215C99.1111 19.9668 99.1658 19.9843 99.2048 20.0742L99.3982 20.5254C99.4294 20.6035 99.406 20.666 99.3279 20.7129C99.1755 20.8027 98.9529 20.8906 98.6599 20.9765C98.3669 21.0586 98.074 21.0996 97.781 21.0996C97.3748 21.0996 97.0623 20.9531 96.8435 20.6601C96.6287 20.3672 96.5212 19.9531 96.5212 19.4179V15.6211H95.8298Z" fill="#96A0B0"/>
<defs>
<clipPath id="clip0_31_425">
<rect width="24" height="24" fill="white" transform="translate(0 16.9706) rotate(-45)"/>
</clipPath>
</defs>
</svg>
