<svg width="48" height="48" viewBox="0 0 48 48" fill="none" xmlns="http://www.w3.org/2000/svg">
<g clip-path="url(#clip0_43_937)">
<path d="M12.343 15.105C11.9619 15.105 11.6122 14.8663 11.4719 14.5124C11.3281 14.1495 11.4305 13.7204 11.7248 13.4628C12.0231 13.2018 12.4683 13.1575 12.8115 13.3563C13.155 13.5551 13.3411 13.9608 13.2626 14.3512C13.1757 14.7842 12.7845 15.105 12.343 15.105Z" fill="#1A73E5"/>
<path d="M29.4766 34.3557C29.0849 34.3557 28.7272 34.1037 28.5942 33.7355C28.4651 33.378 28.5706 32.9634 28.8581 32.7135C29.1632 32.4483 29.6104 32.4091 29.9577 32.6147C30.2822 32.8069 30.4624 33.1929 30.4023 33.565C30.3298 34.0138 29.932 34.3557 29.4766 34.3557V34.3557Z" fill="#1A73E5"/>
<path d="M47.8518 6.96928C47.7244 6.62569 47.4083 6.38784 47.0428 6.36056L41.9318 5.97825L41.5495 0.867667C41.5222 0.502231 41.2845 0.1862 40.9409 0.0587002C40.5971 -0.0688933 40.2109 0.0155753 39.9517 0.2747L35.8665 4.35985C35.1897 5.03644 34.7979 5.93569 34.763 6.89203C34.7623 6.909 34.7621 6.92597 34.7625 6.94294L34.8182 10.0731C31.154 7.10991 26.4927 5.33316 21.4242 5.33316C9.66024 5.33316 0.0895996 14.9033 0.0895996 26.6667C0.0895996 38.43 9.66024 48.0002 21.4242 48.0002C33.1881 48.0002 42.7586 38.43 42.7586 26.6667C42.7586 21.517 40.9244 16.7877 37.8751 13.0976L40.9688 13.1476C40.9739 13.1477 40.9789 13.1477 40.9839 13.1477C40.9954 13.1477 41.0068 13.1475 41.0182 13.147C41.9744 13.112 42.8737 12.7202 43.5504 12.0435L47.6358 7.95834C47.8949 7.69922 47.9793 7.31278 47.8518 6.96928V6.96928ZM37.1923 5.68566L39.8323 3.04576L40.0903 6.49444L36.6903 9.89981L36.6377 6.9375C36.6606 6.46463 36.857 6.02091 37.1923 5.68566V5.68566ZM21.4242 46.125C10.6941 46.125 1.9646 37.396 1.9646 26.6665C1.9646 15.937 10.694 7.20797 21.4242 7.20797C26.4086 7.20797 30.9612 9.09187 34.4078 12.1848L32.2364 14.356C29.3484 11.8166 25.563 10.2747 21.4242 10.2747C19.5177 10.2747 17.6486 10.6008 15.8684 11.2438C15.3814 11.4197 15.1292 11.9571 15.3051 12.4441C15.4811 12.931 16.0181 13.1835 16.5054 13.0073C18.0807 12.4383 19.7355 12.1497 21.4242 12.1497C25.046 12.1497 28.3623 13.4829 30.9082 15.6842L28.7332 17.8591C26.7488 16.2095 24.2003 15.2164 21.4242 15.2164C15.1102 15.2164 9.97346 20.3529 9.97346 26.6665C9.97346 32.9801 15.1102 38.1166 21.4242 38.1166C23.2286 38.1166 25.0278 37.6839 26.627 36.8652C27.0879 36.6292 27.2701 36.0643 27.0342 35.6035C26.7983 35.1425 26.2332 34.9604 25.7725 35.1962C24.4175 35.89 22.9544 36.2417 21.4242 36.2417C16.1442 36.2417 11.8485 31.9464 11.8485 26.6666C11.8485 21.3868 16.1441 17.0914 21.4242 17.0914C23.6831 17.0914 25.7616 17.8782 27.4009 19.1914L25.2139 21.3783C24.1458 20.6108 22.837 20.1581 21.4242 20.1581C17.8353 20.1581 14.9155 23.0777 14.9155 26.6665C14.9155 30.2552 17.8353 33.1749 21.4242 33.1749C25.0131 33.1749 27.9329 30.2552 27.9329 26.6665C27.9329 25.1654 27.4218 23.7814 26.5647 22.6791L28.7437 20.5003C30.1505 22.1674 30.9998 24.3195 30.9998 26.6664C30.9998 27.696 30.8367 28.7094 30.5148 29.6781C30.3516 30.1695 30.6176 30.7002 31.109 30.8634C31.5999 31.0265 32.1309 30.7607 32.2943 30.2693C32.6795 29.1095 32.8748 27.8973 32.8748 26.6664C32.8748 23.8023 31.8178 21.1806 30.0734 19.1706L32.2452 16.9989C34.543 19.5678 35.9419 22.9568 35.9419 26.6664C35.9419 34.6709 29.4293 41.1832 21.4243 41.1832C13.4194 41.1832 6.90652 34.671 6.90652 26.6665C6.90652 23.5738 7.87008 20.6198 9.69305 18.1239C9.99849 17.7058 9.90708 17.1193 9.48896 16.8139C9.07083 16.5086 8.48433 16.5998 8.1789 17.018C6.11996 19.8372 5.03153 23.1736 5.03153 26.6665C5.03153 35.705 12.3853 43.0583 21.4241 43.0583C30.4629 43.0583 37.8166 35.7049 37.8166 26.6665C37.8166 22.4399 36.2085 18.582 33.5721 15.672L35.7417 13.5024C38.9324 16.9697 40.8834 21.5944 40.8834 26.6666C40.8836 37.396 32.1541 46.125 21.4242 46.125V46.125ZM26.0577 26.6665C26.0577 29.2214 23.9791 31.2999 21.4241 31.2999C18.869 31.2999 16.7903 29.2214 16.7903 26.6665C16.7903 24.1116 18.869 22.0331 21.4241 22.0331C22.3184 22.0331 23.1543 22.2881 23.8632 22.7287L20.8729 25.7189C20.5068 26.085 20.5068 26.6786 20.8729 27.0447C21.056 27.2278 21.2959 27.3193 21.5358 27.3193C21.7757 27.3193 22.0156 27.2277 22.1987 27.0447L25.2246 24.019C25.7494 24.77 26.0577 25.6829 26.0577 26.6665ZM42.2247 10.7176C41.8893 11.053 41.4451 11.2494 40.9719 11.2722L38.0198 11.2245L39.8209 9.42356C39.8409 9.40349 39.8597 9.38259 39.8776 9.36131L41.4166 7.81987L44.8646 8.07787L42.2247 10.7176Z" fill="#1A73E5"/>
</g>
<defs>
<clipPath id="clip0_43_937">
<rect width="48" height="48" fill="white"/>
</clipPath>
</defs>
</svg>
