<svg width="48" height="48" viewBox="0 0 48 48" fill="none" xmlns="http://www.w3.org/2000/svg">
<g clip-path="url(#clip0_43_926)">
<path d="M47.605 6.05811C47.5765 6.0313 41.9382 0.654266 41.9382 0.654266C41.7227 0.447454 41.4998 0.233704 41.0835 0.233704H18.3848C17.7218 0.233704 17.1823 0.773047 17.1823 1.43605V5.1282L9.18218 6.49958C8.54093 6.61208 8.10968 7.22577 8.22077 7.86636L8.6268 10.2337C6.02646 11.1088 3.35674 12.0109 0.779459 12.9366C0.170459 13.1593 -0.149135 13.8365 0.0681778 14.4491L5.1949 28.7006C5.29802 28.9874 5.5683 29.166 5.85658 29.166C5.93552 29.166 6.01596 29.1526 6.09452 29.1243C6.45996 28.9928 6.64962 28.5901 6.51818 28.2246L1.4673 14.1839C3.89543 13.3145 6.40999 12.4637 8.86746 11.6365L11.2835 25.722L14.0636 41.9437C14.164 42.5164 14.6673 42.9238 15.2354 42.9238C15.2997 42.9238 15.365 42.9185 15.4304 42.9078L22.9601 41.6156L28.8438 40.607L19.9946 43.7877L13.0164 46.2967L7.59686 31.2228C7.46552 30.8573 7.06287 30.6677 6.69733 30.799C6.3319 30.9304 6.14224 31.3331 6.27358 31.6985L11.77 46.9867C11.9457 47.4675 12.4012 47.7664 12.8826 47.7664C13.0156 47.7664 13.1507 47.7435 13.2823 47.6954L20.4702 45.1111L36.7916 39.2448L39.9096 38.7103H46.7975C47.4605 38.7103 47.9999 38.1697 47.9999 37.5052V6.85039C48 6.42955 47.7716 6.21486 47.605 6.05811V6.05811ZM45.7421 6.22461H42.2236L42.1364 6.22499C41.968 6.22611 41.5736 6.22902 41.4735 6.12964C41.4505 6.10667 41.4235 6.02998 41.4235 5.88758L41.4153 2.09867L45.7421 6.22461ZM46.5938 37.3039H18.5886V23.6007C18.5886 23.2124 18.2738 22.8976 17.8855 22.8976C17.4971 22.8976 17.1823 23.2124 17.1823 23.6007V37.505C17.1823 38.1695 17.7218 38.7101 18.3848 38.7101H31.5859L22.7223 40.2294L15.4115 41.4841L12.6695 25.4842L9.64427 7.84705L17.1822 6.55489V20.3382C17.1822 20.7265 17.4971 21.0413 17.8854 21.0413C18.2737 21.0413 18.5885 20.7265 18.5885 20.3382V1.63986H40.008L40.0172 5.88917C40.0172 6.40423 40.1739 6.82086 40.4828 7.12761C40.9574 7.59889 41.6284 7.6317 42.0449 7.6317C42.0807 7.6317 42.1147 7.63142 42.1465 7.63123L46.5938 7.63095V37.3039Z" fill="#1A73E5"/>
<path d="M21.9778 11.1514C21.9778 11.5397 22.2926 11.8546 22.6809 11.8546H42.7843C43.1726 11.8546 43.4874 11.5397 43.4874 11.1514C43.4874 10.7631 43.1726 10.4483 42.7843 10.4483H22.6809C22.2926 10.4483 21.9778 10.7631 21.9778 11.1514V11.1514Z" fill="#1A73E5"/>
<path d="M42.7843 15.4435H22.6809C22.2926 15.4435 21.9778 15.7584 21.9778 16.1467C21.9778 16.535 22.2926 16.8498 22.6809 16.8498H42.7843C43.1726 16.8498 43.4874 16.535 43.4874 16.1467C43.4874 15.7584 43.1726 15.4435 42.7843 15.4435Z" fill="#1A73E5"/>
<path d="M42.7843 20.4387H22.6809C22.2926 20.4387 21.9778 20.7535 21.9778 21.1418C21.9778 21.5302 22.2926 21.845 22.6809 21.845H42.7843C43.1726 21.845 43.4874 21.5302 43.4874 21.1418C43.4874 20.7535 43.1726 20.4387 42.7843 20.4387Z" fill="#1A73E5"/>
<path d="M42.7843 25.4339H22.6809C22.2926 25.4339 21.9778 25.7487 21.9778 26.137C21.9778 26.5253 22.2926 26.8401 22.6809 26.8401H42.7843C43.1726 26.8401 43.4874 26.5253 43.4874 26.137C43.4874 25.7487 43.1726 25.4339 42.7843 25.4339Z" fill="#1A73E5"/>
<path d="M42.7843 30.4292H22.6809C22.2926 30.4292 21.9778 30.744 21.9778 31.1323C21.9778 31.5206 22.2926 31.8354 22.6809 31.8354H42.7843C43.1726 31.8354 43.4874 31.5206 43.4874 31.1323C43.4874 30.744 43.1726 30.4292 42.7843 30.4292Z" fill="#1A73E5"/>
</g>
<defs>
<clipPath id="clip0_43_926">
<rect width="48" height="48" fill="white"/>
</clipPath>
</defs>
</svg>
