<svg width="48" height="48" viewBox="0 0 48 48" fill="none" xmlns="http://www.w3.org/2000/svg">
<g clip-path="url(#clip0_43_952)">
<path d="M35.1608 0H12.8391C11.213 0 9.89014 1.32285 9.89014 2.94896V27.1881C9.89014 27.5766 10.205 27.8914 10.5934 27.8914C10.9818 27.8914 11.2967 27.5766 11.2967 27.1881V7.54288H36.7033V40.457H11.2967V30.4546C11.2967 30.0661 10.9818 29.7513 10.5934 29.7513C10.205 29.7513 9.89014 30.0661 9.89014 30.4546V45.051C9.89014 46.6771 11.213 47.9999 12.8391 47.9999H35.1608C36.7869 47.9999 38.1098 46.6771 38.1098 45.051V2.94896C38.1098 1.32285 36.7869 0 35.1608 0V0ZM11.2967 6.13629V2.94896C11.2967 2.09854 11.9887 1.40659 12.8391 1.40659H35.1608C36.0112 1.40659 36.7032 2.09854 36.7032 2.94896V6.13629H11.2967ZM35.1608 46.5934H12.8391C11.9887 46.5934 11.2967 45.9015 11.2967 45.051V41.8637H36.7033V45.051C36.7032 45.9015 36.0112 46.5934 35.1608 46.5934Z" fill="#1A73E5"/>
<path d="M25.1336 43.5253H22.8664C22.478 43.5253 22.1631 43.8401 22.1631 44.2286C22.1631 44.6171 22.478 44.9319 22.8664 44.9319H25.1336C25.522 44.9319 25.8369 44.6171 25.8369 44.2286C25.8369 43.8401 25.522 43.5253 25.1336 43.5253Z" fill="#1A73E5"/>
<path d="M21.0354 4.704C21.5504 4.704 21.9679 4.28648 21.9679 3.77144C21.9679 3.25639 21.5504 2.83887 21.0354 2.83887C20.5203 2.83887 20.1028 3.25639 20.1028 3.77144C20.1028 4.28648 20.5203 4.704 21.0354 4.704Z" fill="#1A73E5"/>
<path d="M27.897 3.06824H23.9999C23.6115 3.06824 23.2966 3.38303 23.2966 3.77153C23.2966 4.16003 23.6115 4.47483 23.9999 4.47483H27.897C28.2854 4.47483 28.6003 4.16003 28.6003 3.77153C28.6003 3.38303 28.2854 3.06824 27.897 3.06824Z" fill="#1A73E5"/>
<path d="M31.3805 10.5218V10.0921C31.3805 9.70359 31.0656 9.38879 30.6772 9.38879C30.2888 9.38879 29.9739 9.70359 29.9739 10.0921V10.5218C29.9739 10.9103 30.2888 11.2251 30.6772 11.2251C31.0656 11.2251 31.3805 10.9103 31.3805 10.5218Z" fill="#1A73E5"/>
<path d="M32.8359 11.2251C33.2243 11.2251 33.5392 10.9103 33.5392 10.5218V9.66222C33.5392 9.27372 33.2243 8.95892 32.8359 8.95892C32.4475 8.95892 32.1326 9.27372 32.1326 9.66222V10.5218C32.1326 10.9103 32.4475 11.2251 32.8359 11.2251Z" fill="#1A73E5"/>
<path d="M35.6976 10.5218V9.23247C35.6976 8.84397 35.3827 8.52917 34.9943 8.52917C34.6059 8.52917 34.291 8.84397 34.291 9.23247V10.5218C34.291 10.9103 34.6059 11.2251 34.9943 11.2251C35.3827 11.2251 35.6976 10.9103 35.6976 10.5218Z" fill="#1A73E5"/>
<path d="M16.6743 22.8993H21.7483C22.4461 22.8993 23.0139 22.3315 23.0139 21.6336V16.5597C23.0139 15.8619 22.4461 15.2941 21.7483 15.2941H16.6743C15.9765 15.2941 15.4087 15.8619 15.4087 16.5597V21.6336C15.4088 22.3316 15.9765 22.8993 16.6743 22.8993ZM16.8154 16.7007H21.6073V21.4927H16.8154V16.7007Z" fill="#1A73E5"/>
<path d="M24.9861 16.5597V21.6336C24.9861 22.3314 25.5539 22.8992 26.2517 22.8992H31.3257C32.0235 22.8992 32.5913 22.3314 32.5913 21.6336V20.4835C32.5913 20.095 32.2764 19.7802 31.888 19.7802C31.4996 19.7802 31.1847 20.095 31.1847 20.4835V21.4927H26.3928V16.7006H31.1847V17.2483C31.1847 17.6368 31.4996 17.9516 31.888 17.9516C32.2764 17.9516 32.5913 17.6368 32.5913 17.2483V16.5596C32.5913 15.8618 32.0235 15.294 31.3257 15.294H26.2517C25.5539 15.2941 24.9861 15.8618 24.9861 16.5597Z" fill="#1A73E5"/>
<path d="M15.4087 31.4404C15.4087 32.1381 15.9765 32.7059 16.6743 32.7059H21.7483C22.4461 32.7059 23.0139 32.1381 23.0139 31.4404V26.3664C23.0139 25.6686 22.4461 25.1008 21.7483 25.1008H16.6743C15.9765 25.1008 15.4087 25.6686 15.4087 26.3664V31.4404ZM16.8153 26.5074H21.6072V31.2994H16.8153V26.5074Z" fill="#1A73E5"/>
<path d="M25.6894 29.6067H28.0854V32.0027C28.0854 32.3912 28.4003 32.706 28.7887 32.706C29.1771 32.706 29.492 32.3912 29.492 32.0027V29.6067H31.8879C32.2763 29.6067 32.5912 29.2919 32.5912 28.9034C32.5912 28.5149 32.2763 28.2001 31.8879 28.2001H29.492V25.8041C29.492 25.4156 29.1771 25.1008 28.7887 25.1008C28.4003 25.1008 28.0854 25.4156 28.0854 25.8041V28.2001H25.6894C25.301 28.2001 24.9861 28.5149 24.9861 28.9034C24.9861 29.2919 25.301 29.6067 25.6894 29.6067Z" fill="#1A73E5"/>
</g>
<defs>
<clipPath id="clip0_43_952">
<rect width="48" height="48" fill="white"/>
</clipPath>
</defs>
</svg>
