<svg width="20" height="20" viewBox="0 0 20 20" fill="none" xmlns="http://www.w3.org/2000/svg">
<g clip-path="url(#clip0_43_1660)">
<path d="M18.3333 4.1665C18.3333 1.86523 16.468 0 14.1667 0C11.8652 0 10 1.86523 10 4.1665V6.6665C6.39473 6.6665 3.17373 5.02925 1.0335 2.46099C-1.13599 7.22676 0.222998 12.9395 4.44102 16.1955C3.26177 17.2527 1.70723 17.9005 0 17.9005C1.89048 19.2203 4.18623 20 6.66675 20C13.111 20 18.3333 14.7755 18.3333 8.33325V5.83325L20 4.1665H18.3333ZM14.5825 5C14.1235 5 13.75 4.62725 13.75 4.1665C13.75 3.70601 14.1235 3.33325 14.5825 3.33325C15.0433 3.33325 15.4167 3.70601 15.4167 4.1665C15.4167 4.62725 15.0433 5 14.5825 5Z" fill="#2E384E"/>
</g>
<defs>
<clipPath id="clip0_43_1660">
<rect width="20" height="20" fill="white"/>
</clipPath>
</defs>
</svg>
