<svg width="20" height="20" viewBox="0 0 20 20" fill="none" xmlns="http://www.w3.org/2000/svg">
<g clip-path="url(#clip0_43_1656)">
<path d="M19.7212 5.23473C19.6162 4.35898 18.7909 3.51921 17.9274 3.40671C12.6618 2.75245 7.33719 2.75245 2.07332 3.40671C1.20909 3.51897 0.383784 4.35898 0.278802 5.23473C-0.0929339 8.44431 -0.0929339 11.5563 0.278802 14.7652C0.383784 15.6409 1.20909 16.4815 2.07332 16.5932C7.33719 17.2475 12.662 17.2475 17.9274 16.5932C18.7909 16.4817 19.6162 15.6409 19.7212 14.7652C20.093 11.5566 20.093 8.44431 19.7212 5.23473ZM8.33321 13.3339V6.66703L13.3333 10.0006L8.33321 13.3339Z" fill="#2E384E"/>
</g>
<defs>
<clipPath id="clip0_43_1656">
<rect width="20" height="20" fill="white"/>
</clipPath>
</defs>
</svg>
